<?xml version="1.0" encoding="utf-8"?>
<!-- Generator: Adobe Illustrator 27.2.0, SVG Export Plug-In . SVG Version: 6.00 Build 0)  -->
<svg version="1.1" id="Capa_1" xmlns="http://www.w3.org/2000/svg" xmlns:xlink="http://www.w3.org/1999/xlink" x="0px" y="0px"
	 viewBox="0 0 800 458" style="enable-background:new 0 0 800 458;" xml:space="preserve">
<style type="text/css">
	.st0{fill:#FAB084;}
	.st1{fill:#6F2D6B;}
	.st2{fill:#F7BF5C;}
	.st3{fill:#FA3369;}
	.st4{fill:#FFFFFF;}
	.st5{fill:none;}
	.st6{fill:#422164;}
	.st7{fill:#F7F7F7;}
	.st8{opacity:0.15;fill:#FFFFFF;}
	.st9{fill:none;stroke:#272B36;stroke-miterlimit:10;}
	.st10{fill:none;stroke:#272B36;stroke-width:1.0097;stroke-miterlimit:10;}
	.st11{fill:#FD975A;}
</style>
<path class="st0" d="M318.14,417.74l-0.34,8.66l-0.13,3.45c-0.21,0.37-0.5,0.69-0.87,0.92c-0.65,0.41-1.47,0.51-2.25,0.47
	c-3.93-0.2-6.96-3.38-10.6-4.84c-3.05-1.22-8.24-0.96-12.45-0.15c-0.29,0.2-0.56,0.42-0.84,0.64c-0.01,0-0.02,0.01-0.03,0.02
	c-2.28,1.81-4.27,4.11-5.93,6.49c-3.11,4.44-5.63,9.42-9.25,13.39c-0.67,0.74-1.38,1.45-2.14,2.11c-5.69,4.96-13.4,6.76-21.04,6.68
	c-1.8-0.01-3.59-0.14-5.34-0.34c-8.72-1.02-17.1-3.9-25.4-6.75c-0.64-0.22-1.28-0.44-1.92-0.66c-6.78-2.33-13.55-4.66-20.33-6.99
	c-16.74-5.76-33.48-11.52-50.22-17.28c-11.59-3.99-23.95-8.54-31.03-18.55c-5.54-7.83-6.93-18.02-5.67-27.52
	c1.11-8.4,4.12-16.4,7.51-24.19c0.44-1.03,0.89-2.05,1.35-3.07c9.05-20.24,19.5-39.85,31.25-58.66v-0.01
	c2.63-4.22,5.33-8.4,8.1-12.53c6.81,2.81,13.17,6.71,18.4,11.88c5.35,5.29,9.45,11.97,11.36,19.22c-4.44,5-8.57,10.27-12.36,15.75
	c-3.17,4.57-6.1,9.29-8.78,14.13v0.01c-6.68,12.06-11.85,24.9-15.28,38.15c10.01,5.95,18.78,14.12,28.69,20.37
	c3.78,2.39,7.71,4.49,11.74,6.41c11.55,5.53,23.85,9.63,35.49,15.07c3.49,1.63,6.97,3.4,10.73,4.18c9.21,1.92,18.52-2.24,26.73-6.82
	c8.22-4.57,16.59-9.81,25.98-10.27c7.51-0.37,17.42,3.02,22.73,8.35C316.73,416.19,317.43,416.97,318.14,417.74z"/>
<path class="st0" d="M283.32,203.48c-1.13,3.39-2.53,6.72-4.6,9.62c-1.74,2.46-3.95,4.54-6.45,6.2c0.21,5.27,0.38,10.57,0.39,15.85
	c0.01,1.19,0,2.38-0.02,3.56c-0.14,9.64-0.95,19.21-3.32,28.45c-0.33,1.31-0.69,2.61-1.08,3.9c-1.2-0.38-2.38-0.82-3.55-1.31
	c-6.18-2.61-11.9-6.62-17.4-10.54c-3.35-2.38-6.75-4.84-9.94-7.52c3.74-3,6-7.9,5.51-12.7c-0.66-6.43-6.2-12.02-12.62-12.74
	c-1.43-0.16-2.92-0.11-4.24-0.69c-2.36-1.03-3.5-3.77-3.76-6.33c-0.43-4.32,0.97-8.59,2.51-12.65c1.35-3.57,2.84-7.18,3.33-10.94
	c3.3-4.43,4.09-10.82,1.39-15.72c-0.8-1.47-1.91-3.14-1.23-4.67c0.33-0.75,1.03-1.26,1.66-1.8c3.3-2.77,5.26-7.06,5.19-11.37
	c-0.03-2.58-0.75-5.11-0.86-7.69c-0.25-6.18,2.99-11.89,4.83-17.79c1.18-3.78,1.59-8.23,0.4-11.88c0.19-0.21,0.39-0.41,0.59-0.61
	c1.66-1.65,3.56-3.15,5.78-3.89c2.04-0.69,4.41-0.65,6.26,0.42c0.04,1.25-0.07,2.53-0.24,3.7c-0.95,6.5-1.64,13.2-0.11,19.59
	c1.54,6.39,5.71,12.49,11.9,14.7c6.63,2.37,14.47,0.05,20.88,2.53C288.24,174.98,287.86,189.9,283.32,203.48z"/>
<path class="st0" d="M351.57,325.91l-23.4,5.31c-1.2,0.27-2.3,0.78-3.25,1.46c4.45-7.24,11.78-12.42,19.73-15.89
	C347.06,319.76,349.37,322.8,351.57,325.91z"/>
<path class="st1" d="M315.84,194.75c1.2,5.78-0.95,12.11-5.31,16.07c-0.43,0.4-0.89,0.77-1.37,1.12c-1.84,1.33-3.95,2.23-6.16,2.72
	c-0.71,0.15-1.44,0.27-2.17,0.33c-0.52,1.17-1.3,2.25-2.21,3.15c-1.99,1.99-4.53,3.32-6.81,4.97c-2.28,1.65-4.42,3.81-5,6.57
	c-0.2,0.97-0.2,2.01-0.61,2.92c-0.37,0.85-1.04,1.51-1.7,2.15c-1.01,0.97-2.02,1.95-3.23,2.66c-1.76,1.04-3.76,1.4-5.82,1.42
	c-0.87-1.28-1.8-2.51-2.79-3.68c-0.01-5.28-0.18-10.58-0.39-15.85c2.5-1.66,4.71-3.74,6.45-6.2c2.07-2.9,3.47-6.23,4.6-9.62
	c4.54-13.58,4.92-28.5,1.2-42.32c-6.41-2.48-14.25-0.16-20.88-2.53c-6.19-2.21-10.36-8.31-11.9-14.7
	c-1.53-6.39-0.84-13.09,0.11-19.59c0.17-1.17,0.28-2.45,0.24-3.7c-1.85-1.07-4.22-1.11-6.26-0.42c-2.22,0.74-4.12,2.24-5.78,3.89
	c-0.2,0.2-0.4,0.4-0.59,0.61c1.19,3.65,0.78,8.1-0.4,11.88c-1.84,5.9-5.08,11.61-4.83,17.79c0.11,2.58,0.83,5.11,0.86,7.69
	c0.07,4.31-1.89,8.6-5.19,11.37c-0.63,0.54-1.33,1.05-1.66,1.8c-0.68,1.53,0.43,3.2,1.23,4.67c2.7,4.9,1.91,11.29-1.39,15.72
	c-0.49,3.76-1.98,7.37-3.33,10.94c-1.54,4.06-2.94,8.33-2.51,12.65c0.26,2.56,1.4,5.3,3.76,6.33c1.32,0.58,2.81,0.53,4.24,0.69
	c6.42,0.72,11.96,6.31,12.62,12.74c0.49,4.8-1.77,9.7-5.51,12.7c-1.27,1.03-2.7,1.83-4.26,2.34c-1.57,0.51-3.37,0.73-4.83-0.06
	c-1.46-0.78-2.27-2.87-1.26-4.18c0.5-0.65,1.29-0.97,1.98-1.39c0.98-0.59,1.74-1.43,2.29-2.4c1.66-2.93,1.33-7.09-1.26-9.35
	c-1.77-1.55-4.08-2.11-6.43-2.58c-1.1-0.23-2.21-0.43-3.27-0.71c-1.46-0.38-2.85-0.93-4.16-1.64c-1.29,0.17-2.6,0.24-3.93,0.25
	c-4.84,0.08-9.88-0.57-14.76-0.3c-3.46-2.54-6.92-5.07-10.38-7.61c-1.58-1.15-3.19-2.34-4.28-3.96c-3.25-4.83-0.84-11.38,2.18-16.36
	c3.02-4.98,6.74-10.28,5.86-16.03c-0.51-3.31-2.54-6.35-2.4-9.69c0.22-5.03,5.22-8.69,6.16-13.65c0.72-3.87-1.15-7.71-1.6-11.63
	c-0.53-4.61,0.95-9.22,2.85-13.45c0.8-1.77,1.69-3.54,3.09-4.88c1.59-1.51,3.68-2.34,5.45-3.63c4.77-3.49,6.65-9.87,11.27-13.56
	c4.25-3.4,10.6-3.75,15.32-1.1c3.69-5.06,8.29-9.47,13.99-11.97c7.11-3.12,16.14-2.67,21.87,2.57c3.06,2.8,5.2,6.85,9.05,8.38
	c1.24,0.5,2.57,0.69,3.87,0.99c8.37,2,15.1,9.58,16.11,18.12c0.66,5.63-0.95,11.31-0.6,16.97c0.01,0.1,0.01,0.21,0.03,0.31
	c1.33,0.43,2.72,0.72,4.07,1.12c1.25,0.37,2.46,0.84,3.63,1.41c2.01,0.95,3.9,2.19,5.59,3.65c2.38,2.04,4.38,4.51,5.85,7.29
	c3.1,5.91,3.7,13.08,1.63,19.42c-0.5,1.53-1.15,3.03-1.24,4.63C314.72,190.96,315.45,192.84,315.84,194.75z"/>
<path class="st1" d="M214.35,455.31c-0.38,0.87-0.71,1.77-0.98,2.69H44.45c4.96-10.3,11.19-19.75,19.37-27.34
	c8.85-31.78,27.93-61.91,56.05-77.36c-3.39,7.79-6.4,15.79-7.51,24.19c-1.26,9.5,0.13,19.69,5.67,27.52
	c7.08,10.01,19.44,14.56,31.03,18.55c16.74,5.76,33.48,11.52,50.22,17.28c0.46,2.38,1.11,4.71,1.92,6.99
	c1.24,3.46,3.6,7.29,7.28,7.36c1.09,0.02,2.16-0.31,3.25-0.34C212.63,454.83,213.5,455.02,214.35,455.31z"/>
<path class="st1" d="M194.34,404.95c-4.03-1.92-7.96-4.02-11.74-6.41c-9.91-6.25-18.68-14.42-28.69-20.37
	c3.43-13.25,8.6-26.09,15.28-38.15v-0.01c3.99-0.59,7.99-1.19,11.99-1.78c-0.45,12.46,0.2,24.9,3.78,36.78
	C187.97,385.03,193.06,394.71,194.34,404.95z"/>
<path class="st2" d="M530.86,448.53c-0.24,3.16-0.52,6.32-0.83,9.47h-96.02c-0.4-1.15-0.8-2.31-1.2-3.46
	c-4.22-12.17-9.53-25.46-18.76-33.7l55.82-13.64l1.19-20.13c4.51-1.68,9.11-3.11,13.77-4.3c3.75-0.96,7.61-1.75,11.46-1.36
	c9.03,0.94,16.05,8.16,21.41,15.49c5.22,7.14,9.74,14.96,11.93,23.53C531.97,429.55,531.58,439.14,530.86,448.53z"/>
<path class="st2" d="M254.37,458h-41c0.27-0.92,0.6-1.82,0.98-2.69c1.22-2.82,3.02-5.38,5.26-7.48c0.64,0.22,1.28,0.44,1.92,0.66
	c8.3,2.85,16.68,5.73,25.4,6.75c1.75,0.2,3.54,0.33,5.34,0.34C252.72,456.58,253.46,457.42,254.37,458z"/>
<path class="st2" d="M434.01,458H262l152.05-37.16c9.23,8.24,14.54,21.53,18.76,33.7C433.21,455.69,433.61,456.85,434.01,458z"/>
<path class="st3" d="M350.75,313.96c-0.35,0.6-1.07,0.86-1.73,1.1c-1.47,0.52-2.93,1.09-4.37,1.73
	c-7.95,3.47-15.28,8.65-19.73,15.89c-2.21,1.58-3.64,4.12-3.74,6.96l-0.09,2.41l-0.01,0.04l-0.26,6.74l-2.68,68.91
	c-0.71-0.77-1.41-1.55-2.14-2.28c-5.31-5.33-15.22-8.72-22.73-8.35c-9.39,0.46-17.76,5.7-25.98,10.27
	c-8.21,4.58-17.52,8.74-26.73,6.82c-3.76-0.78-7.24-2.55-10.73-4.18c-11.64-5.44-23.94-9.54-35.49-15.07
	c-1.28-10.24-6.37-19.92-9.38-29.94c-3.58-11.88-4.23-24.32-3.78-36.78c0.14-3.77,0.38-7.53,0.68-11.28
	c-1.37-0.09-2.7-0.44-3.89-1.07c3.79-5.48,7.92-10.75,12.36-15.75c-1.91-7.25-6.01-13.93-11.36-19.22
	c-5.23-5.17-11.59-9.07-18.4-11.88c-2.77,4.13-5.47,8.31-8.1,12.53c-1.32-3.14-4.11-7.03-4.6-9.74c-0.29-1.67-0.59-3.39-0.27-5.05
	c0.74-3.97,4.56-6.44,7.69-8.99c6.71-5.47,11.33-13.02,16.61-19.88c5.29-6.87,11.83-13.43,20.24-15.49
	c1.74-0.42,3.52-0.65,5.32-0.74c4.88-0.27,9.92,0.38,14.76,0.3c5.1,14.09,10.66,28.27,20.37,39.62c2.82,3.3,5.97,6.33,8.54,9.83
	c3.5,4.75,5.86,10.34,6.83,16.16c0.24-6.01,2.71-11.9,6.82-16.29c2.3-2.45,5.08-4.44,7.26-7.01c1.13-1.33,2.09-2.88,2.65-4.53
	c1.17,0.49,2.35,0.93,3.55,1.31c0.39-1.29,0.75-2.59,1.08-3.9c4.06,2.6,6.83,6.9,8.45,11.46c1.69,4.75,2.25,9.83,2.8,14.85
	c3.27-15.26,5.29-31.63-0.54-46.1c-0.52-1.28-1.09-2.54-1.73-3.77c6.19,3.01,14.07,1.82,20.94,3.63c1.31,0.34,2.56,0.79,3.76,1.34
	c7.76,3.48,13.42,10.76,17.66,18.59c0.89,1.66,1.73,3.35,2.51,5.03c5.01,10.81,9.07,22.66,17.99,30.56
	c3.09,2.74,6.74,4.97,9.06,8.39C350.79,311.97,351.27,313.08,350.75,313.96z"/>
<path class="st3" d="M634.45,75.04H310.48c-4.13,0-7.48,3.35-7.48,7.48v19.71h335.37c1.07-1.53,2.26-2.96,3.55-4.29V82.52
	C641.92,78.39,638.57,75.04,634.45,75.04z M585.4,90.87c-0.66,0.67-1.59,1.09-2.61,1.09H321.97c-2.05,0-3.71-1.66-3.71-3.71
	c0-1.03,0.42-1.95,1.09-2.62c0.67-0.67,1.59-1.08,2.62-1.08h260.82c2.04,0,3.7,1.65,3.7,3.7C586.49,89.28,586.08,90.2,585.4,90.87z
	 M604.4,91.96c-2.05,0-3.7-1.66-3.7-3.71s1.65-3.7,3.7-3.7c2.05,0,3.71,1.65,3.71,3.7S606.45,91.96,604.4,91.96z M617.26,91.96
	c-2.05,0-3.7-1.66-3.7-3.71s1.65-3.7,3.7-3.7s3.7,1.65,3.7,3.7S619.31,91.96,617.26,91.96z M630.12,91.96
	c-2.05,0-3.71-1.66-3.71-3.71s1.66-3.7,3.71-3.7s3.7,1.65,3.7,3.7S632.17,91.96,630.12,91.96z"/>
<path class="st2" d="M107.67,145.89c-20.71,0-37.49,16.79-37.49,37.49c0,20.71,16.78,37.49,37.49,37.49
	c20.7,0,37.49-16.78,37.49-37.49C145.16,162.68,128.37,145.89,107.67,145.89z M102.82,188.35c0,7.81-3.83,10.21-8.89,10.21
	c-1.4,0-3.1-0.31-4.06-0.7l0.57-3.1c0.78,0.31,1.92,0.57,3.18,0.57c3.4,0,5.41-1.53,5.41-7.28v-19.36h3.79V188.35z M115.17,198.51
	c-2.83,0-5.93-0.82-7.5-1.87l0.96-3.18c1.7,1.04,4.19,1.91,6.8,1.91c3.89,0,6.15-2.04,6.15-5.01c0-2.75-1.57-4.32-5.53-5.84
	c-4.8-1.7-7.77-4.19-7.77-8.33c0-4.58,3.8-7.98,9.51-7.98c3.01,0,5.19,0.7,6.5,1.44l-1.05,3.09c-0.96-0.52-2.92-1.39-5.58-1.39
	c-4.01,0-5.54,2.39-5.54,4.4c0,2.75,1.79,4.1,5.84,5.67c4.98,1.92,7.5,4.32,7.5,8.63C125.46,194.59,122.11,198.51,115.17,198.51z"/>
<path class="st1" d="M102.82,168.69v19.66c0,7.81-3.83,10.21-8.89,10.21c-1.4,0-3.1-0.31-4.06-0.7l0.57-3.1
	c0.78,0.31,1.92,0.57,3.18,0.57c3.4,0,5.41-1.53,5.41-7.28v-19.36H102.82z"/>
<path class="st1" d="M125.46,190.05c0,4.54-3.35,8.46-10.29,8.46c-2.83,0-5.93-0.82-7.5-1.87l0.96-3.18c1.7,1.04,4.19,1.91,6.8,1.91
	c3.89,0,6.15-2.04,6.15-5.01c0-2.75-1.57-4.32-5.53-5.84c-4.8-1.7-7.77-4.19-7.77-8.33c0-4.58,3.8-7.98,9.51-7.98
	c3.01,0,5.19,0.7,6.5,1.44l-1.05,3.09c-0.96-0.52-2.92-1.39-5.58-1.39c-4.01,0-5.54,2.39-5.54,4.4c0,2.75,1.79,4.1,5.84,5.67
	C122.94,183.34,125.46,185.74,125.46,190.05z"/>
<path class="st4" d="M666.99,87.33c-9.84,0-18.72,4.07-25.07,10.61c-1.29,1.33-2.48,2.76-3.55,4.29
	c-3.98,5.67-6.31,12.58-6.31,20.03c0,9.45,3.76,18.03,9.86,24.32c6.35,6.54,15.23,10.61,25.07,10.61
	c19.29,0,34.93-15.64,34.93-34.93C701.92,102.97,686.28,87.33,666.99,87.33z M655.09,131.94h-2.82c-3.55,0-6.43-2.88-6.43-6.44
	v-7.47c0-3.56,2.88-6.44,6.43-6.44h4.55l9.77-0.01v-1.97h-9.77v-2.56c0-1.93,0.84-3.66,2.18-4.82c1.14-1.01,2.63-1.62,4.25-1.62
	h7.48c3.56,0,6.44,2.88,6.44,6.44v9.2c0,3.05-2.47,5.52-5.51,5.52h-8.81c-4.29,0-7.76,3.47-7.76,7.76V131.94z M688.15,126.49
	c0,3.56-2.88,6.44-6.44,6.44h-14.17v1.96h9.63v2.58c0,1.05-0.25,2.04-0.7,2.91c-0.22,0.44-0.48,0.84-0.79,1.21
	c-1.18,1.42-2.96,2.32-4.95,2.32h-7.48c-0.91,0-1.78-0.19-2.56-0.53c-2.28-0.99-3.87-3.26-3.87-5.91v-7.14
	c0-2.65,1.59-4.93,3.88-5.93c0.79-0.34,1.66-0.53,2.58-0.53h9.19c3.55,0,6.43-2.88,6.43-6.43v-3.95c0-0.5,0.41-0.91,0.91-0.91h1.9
	c1.65,0,3.16,0.62,4.3,1.64c1.31,1.18,2.14,2.89,2.14,4.8V126.49z"/>
<path class="st1" d="M670.73,100.61h-7.48c-1.62,0-3.11,0.61-4.25,1.62c-1.34,1.16-2.18,2.89-2.18,4.82v2.56h9.77v1.97l-9.77,0.01
	h-4.55c-3.55,0-6.43,2.88-6.43,6.44v7.47c0,3.56,2.88,6.44,6.43,6.44h2.82v-2.41c0-4.29,3.47-7.76,7.76-7.76h8.81
	c3.04,0,5.51-2.47,5.51-5.52v-9.2C677.17,103.49,674.29,100.61,670.73,100.61z M661.28,107.9c-0.11,0-0.23-0.01-0.34-0.03
	c-0.02-0.01-0.05-0.01-0.07-0.02c-0.01,0-0.02,0-0.03-0.01c-0.04-0.01-0.08-0.02-0.11-0.03c-0.05-0.01-0.1-0.03-0.14-0.05
	c-0.02-0.01-0.05-0.02-0.07-0.03c-0.04-0.01-0.07-0.03-0.1-0.05c-0.02,0-0.03-0.01-0.05-0.02c-0.01-0.01-0.03-0.02-0.04-0.03
	c-0.03-0.02-0.07-0.04-0.1-0.06c-0.11-0.08-0.22-0.17-0.31-0.28l-0.06-0.06c-0.02-0.02-0.03-0.04-0.05-0.06
	c-0.01-0.01-0.01-0.02-0.02-0.04c-0.09-0.12-0.16-0.25-0.22-0.39c-0.01-0.03-0.03-0.07-0.04-0.11c0-0.01-0.01-0.03-0.01-0.04
	c-0.02-0.05-0.03-0.1-0.04-0.15c-0.01-0.04-0.02-0.08-0.02-0.12c-0.01-0.05-0.01-0.1-0.02-0.15v-0.24c0.01-0.05,0.01-0.1,0.02-0.14
	c0-0.04,0.01-0.08,0.02-0.13c0.01-0.04,0.02-0.09,0.04-0.14c0-0.02,0.01-0.03,0.01-0.05c0.01-0.04,0.03-0.07,0.04-0.11
	c0.05-0.11,0.1-0.22,0.17-0.32c0.01-0.02,0.03-0.04,0.04-0.06c0.01-0.02,0.03-0.03,0.04-0.05c0.04-0.05,0.08-0.1,0.12-0.14
	c0.02-0.02,0.04-0.04,0.06-0.06c0.01-0.02,0.03-0.03,0.04-0.04c0.02-0.02,0.04-0.03,0.05-0.05c0.02-0.02,0.05-0.03,0.07-0.05
	c0.01-0.01,0.03-0.02,0.04-0.03c0.04-0.03,0.08-0.06,0.13-0.09c0.03-0.02,0.06-0.03,0.09-0.05c0.03-0.02,0.06-0.03,0.1-0.05
	c0.02-0.01,0.05-0.02,0.07-0.03c0.04-0.02,0.09-0.03,0.14-0.05c0.03-0.01,0.07-0.02,0.11-0.03c0.01,0,0.02,0,0.03-0.01
	c0.02,0,0.05-0.01,0.07-0.01c0.11-0.02,0.23-0.03,0.34-0.03c1.02,0,1.85,0.82,1.85,1.84C663.13,107.07,662.3,107.9,661.28,107.9z"/>
<path class="st4" d="M663.13,106.05c0,1.02-0.83,1.85-1.85,1.85c-0.11,0-0.23-0.01-0.34-0.03c-0.02-0.01-0.05-0.01-0.07-0.02
	c-0.01,0-0.02,0-0.03-0.01c-0.04-0.01-0.08-0.02-0.11-0.03c-0.05-0.01-0.1-0.03-0.14-0.05c-0.02-0.01-0.05-0.02-0.07-0.03
	c-0.04-0.01-0.07-0.03-0.1-0.05c-0.02,0-0.03-0.01-0.05-0.02c-0.01-0.01-0.03-0.02-0.04-0.03c-0.03-0.02-0.07-0.04-0.1-0.06
	c-0.11-0.08-0.22-0.17-0.31-0.28l-0.06-0.06c-0.02-0.02-0.03-0.04-0.05-0.06c-0.01-0.01-0.01-0.02-0.02-0.04
	c-0.09-0.12-0.16-0.25-0.22-0.39c-0.01-0.03-0.03-0.07-0.04-0.11c0-0.01-0.01-0.03-0.01-0.04c-0.02-0.05-0.03-0.1-0.04-0.15
	c-0.01-0.04-0.02-0.08-0.02-0.12c-0.01-0.05-0.01-0.1-0.02-0.15v-0.24c0.01-0.05,0.01-0.1,0.02-0.14c0-0.04,0.01-0.08,0.02-0.13
	c0.01-0.04,0.02-0.09,0.04-0.14c0-0.02,0.01-0.03,0.01-0.05c0.01-0.04,0.03-0.07,0.04-0.11c0.05-0.11,0.1-0.22,0.17-0.32
	c0.01-0.02,0.03-0.04,0.04-0.06c0.01-0.02,0.03-0.03,0.04-0.05c0.04-0.05,0.08-0.1,0.12-0.14c0.02-0.02,0.04-0.04,0.06-0.06
	c0.01-0.02,0.03-0.03,0.04-0.04c0.02-0.02,0.04-0.03,0.05-0.05c0.02-0.02,0.05-0.03,0.07-0.05c0.01-0.01,0.03-0.02,0.04-0.03
	c0.04-0.03,0.08-0.06,0.13-0.09c0.03-0.02,0.06-0.03,0.09-0.05c0.03-0.02,0.06-0.03,0.1-0.05c0.02-0.01,0.05-0.02,0.07-0.03
	c0.04-0.02,0.09-0.03,0.14-0.05c0.03-0.01,0.07-0.02,0.11-0.03c0.01,0,0.02,0,0.03-0.01c0.02,0,0.05-0.01,0.07-0.01
	c0.11-0.02,0.23-0.03,0.34-0.03C662.3,104.21,663.13,105.03,663.13,106.05z"/>
<path class="st2" d="M686.01,114.22c-1.14-1.02-2.65-1.64-4.3-1.64h-1.9c-0.5,0-0.91,0.41-0.91,0.91v3.95
	c0,3.55-2.88,6.43-6.43,6.43h-9.19c-0.92,0-1.79,0.19-2.58,0.53c-2.29,1-3.88,3.28-3.88,5.93v7.14c0,2.65,1.59,4.92,3.87,5.91
	c0.78,0.34,1.65,0.53,2.56,0.53h7.48c1.99,0,3.77-0.9,4.95-2.32c0.31-0.37,0.57-0.77,0.79-1.21c0.45-0.87,0.7-1.86,0.7-2.91v-2.58
	h-9.63v-1.96h14.17c3.56,0,6.44-2.88,6.44-6.44v-7.47C688.15,117.11,687.32,115.4,686.01,114.22z M671.08,138.94
	c0-1.02,0.83-1.85,1.85-1.85c0.02,0,0.05,0,0.07,0.01h0.05c0.05,0,0.09,0.01,0.14,0.01c0.03,0.01,0.05,0.01,0.08,0.02
	c0.02,0,0.03,0,0.05,0.01c0.02,0,0.03,0,0.05,0.01c0.04,0.01,0.08,0.02,0.12,0.03c0.04,0.01,0.08,0.03,0.11,0.04
	c0.04,0.02,0.07,0.03,0.1,0.04c0.03,0.01,0.05,0.03,0.07,0.04c0.01,0,0.02,0.01,0.02,0.01c0.11,0.05,0.2,0.12,0.29,0.19
	c0.02,0.01,0.03,0.03,0.05,0.04c0.01,0.01,0.02,0.01,0.03,0.02c0,0.01,0.01,0.02,0.02,0.03c0.01,0,0.01,0.01,0.02,0.01
	c0.02,0.02,0.03,0.03,0.05,0.05c0.03,0.04,0.07,0.08,0.1,0.12c0.03,0.03,0.05,0.05,0.07,0.08c0.03,0.04,0.06,0.09,0.08,0.13
	c0.01,0.01,0.02,0.03,0.03,0.04c0.01,0.03,0.03,0.06,0.05,0.09c0,0.02,0.01,0.03,0.02,0.05l0.02,0.05c0.03,0.06,0.05,0.12,0.07,0.18
	c0.01,0.03,0.01,0.05,0.02,0.07c0.01,0.03,0.02,0.07,0.02,0.1c0.01,0.03,0.02,0.06,0.02,0.09c0.02,0.1,0.02,0.19,0.02,0.29v0.13
	c0,0.04-0.01,0.08-0.01,0.12c-0.01,0.01-0.01,0.02-0.01,0.04c-0.01,0.09-0.03,0.18-0.06,0.27c-0.04,0.11-0.09,0.22-0.14,0.33
	c-0.02,0.03-0.03,0.05-0.05,0.08c-0.01,0.02-0.03,0.05-0.05,0.07c-0.02,0.03-0.03,0.05-0.05,0.07c-0.02,0.04-0.05,0.07-0.08,0.1
	c0,0-0.01,0.01-0.01,0.02c-0.03,0.03-0.06,0.06-0.09,0.08c-0.02,0.03-0.04,0.05-0.06,0.07c-0.03,0.02-0.06,0.05-0.09,0.07
	c-0.04,0.03-0.08,0.06-0.12,0.09c-0.03,0.02-0.05,0.03-0.08,0.05c-0.02,0.01-0.05,0.03-0.08,0.04c0,0-0.01,0.01-0.02,0.01
	c-0.02,0.01-0.04,0.03-0.07,0.04c-0.01,0-0.03,0.01-0.04,0.02c-0.01,0-0.03,0.01-0.04,0.01c-0.04,0.02-0.07,0.03-0.11,0.04
	c-0.03,0.01-0.05,0.02-0.07,0.03h-0.01c-0.06,0.01-0.17,0.03-0.24,0.05c0,0,0,0-0.01,0c-0.03,0-0.06,0.01-0.1,0.01
	c-0.04,0-0.08,0.01-0.12,0.01h-0.03c-0.04,0-0.07,0-0.11-0.01h-0.07c-0.03,0-0.06-0.01-0.09-0.01c-0.04-0.01-0.08-0.02-0.12-0.03
	c-0.04,0-0.09-0.01-0.12-0.03c-0.04-0.01-0.07-0.02-0.11-0.03c-0.01,0-0.02-0.01-0.03-0.01c-0.03-0.01-0.06-0.02-0.09-0.04
	c-0.01,0-0.02,0-0.02-0.01c-0.04-0.01-0.07-0.03-0.1-0.04c-0.03-0.02-0.07-0.04-0.1-0.06c-0.02-0.01-0.04-0.02-0.06-0.04
	c-0.01-0.01-0.03-0.02-0.04-0.03c-0.03-0.02-0.07-0.04-0.1-0.07c-0.02-0.02-0.05-0.04-0.07-0.06c-0.01-0.01-0.01-0.01-0.02-0.02
	c-0.02-0.01-0.03-0.03-0.05-0.05c-0.02-0.02-0.04-0.04-0.06-0.06c-0.01-0.01-0.02-0.02-0.03-0.04c-0.03-0.02-0.04-0.05-0.06-0.07
	c-0.03-0.03-0.05-0.06-0.07-0.09c-0.02-0.03-0.04-0.06-0.06-0.09c-0.01-0.02-0.03-0.05-0.04-0.07c-0.01-0.03-0.03-0.05-0.04-0.07
	c-0.01-0.02-0.02-0.04-0.02-0.05c-0.01-0.03-0.02-0.05-0.03-0.07c-0.02-0.05-0.04-0.1-0.05-0.14c-0.03-0.09-0.05-0.18-0.07-0.27
	v-0.04c-0.01-0.04-0.01-0.08-0.01-0.12c-0.01-0.02-0.01-0.04-0.01-0.05V138.94z"/>
<path class="st4" d="M674.77,138.94v0.13c0,0.04-0.01,0.08-0.01,0.12c-0.01,0.01-0.01,0.02-0.01,0.04
	c-0.01,0.09-0.03,0.18-0.06,0.27c-0.04,0.11-0.09,0.22-0.14,0.33c-0.02,0.03-0.03,0.05-0.05,0.08c-0.01,0.02-0.03,0.05-0.05,0.07
	c-0.02,0.03-0.03,0.05-0.05,0.07c-0.02,0.04-0.05,0.07-0.08,0.1c0,0-0.01,0.01-0.01,0.02c-0.03,0.03-0.06,0.06-0.09,0.08
	c-0.02,0.03-0.04,0.05-0.06,0.07c-0.03,0.02-0.06,0.05-0.09,0.07c-0.04,0.03-0.08,0.06-0.12,0.09c-0.03,0.02-0.05,0.03-0.08,0.05
	c-0.02,0.01-0.05,0.03-0.08,0.04c0,0-0.01,0.01-0.02,0.01c-0.02,0.01-0.04,0.03-0.07,0.04c-0.01,0-0.03,0.01-0.04,0.02
	c-0.01,0-0.03,0.01-0.04,0.01c-0.04,0.02-0.07,0.03-0.11,0.04c-0.03,0.01-0.05,0.02-0.07,0.03h-0.01c-0.06,0.01-0.17,0.03-0.24,0.05
	c0,0,0,0-0.01,0c-0.03,0-0.06,0.01-0.1,0.01c-0.04,0-0.08,0.01-0.12,0.01h-0.03c-0.04,0-0.07,0-0.11-0.01h-0.07
	c-0.03,0-0.06-0.01-0.09-0.01c-0.04-0.01-0.08-0.02-0.12-0.03c-0.04,0-0.09-0.01-0.12-0.03c-0.04-0.01-0.07-0.02-0.11-0.03
	c-0.01,0-0.02-0.01-0.03-0.01c-0.03-0.01-0.06-0.02-0.09-0.04c-0.01,0-0.02,0-0.02-0.01c-0.04-0.01-0.07-0.03-0.1-0.04
	c-0.03-0.02-0.07-0.04-0.1-0.06c-0.02-0.01-0.04-0.02-0.06-0.04c-0.01-0.01-0.03-0.02-0.04-0.03c-0.03-0.02-0.07-0.04-0.1-0.07
	c-0.02-0.02-0.05-0.04-0.07-0.06c-0.01-0.01-0.01-0.01-0.02-0.02c-0.02-0.01-0.03-0.03-0.05-0.05c-0.02-0.02-0.04-0.04-0.06-0.06
	c-0.01-0.01-0.02-0.02-0.03-0.04c-0.03-0.02-0.04-0.05-0.06-0.07c-0.03-0.03-0.05-0.06-0.07-0.09c-0.02-0.03-0.04-0.06-0.06-0.09
	c-0.01-0.02-0.03-0.05-0.04-0.07c-0.01-0.03-0.03-0.05-0.04-0.07c-0.01-0.02-0.02-0.04-0.02-0.05c-0.01-0.03-0.02-0.05-0.03-0.07
	c-0.02-0.05-0.04-0.1-0.05-0.14c-0.03-0.09-0.05-0.18-0.07-0.27v-0.04c-0.01-0.04-0.01-0.08-0.01-0.12
	c-0.01-0.02-0.01-0.04-0.01-0.05v-0.08c0-1.02,0.83-1.85,1.85-1.85c0.02,0,0.05,0,0.07,0.01h0.05c0.05,0,0.09,0.01,0.14,0.01
	c0.03,0.01,0.05,0.01,0.08,0.02c0.02,0,0.03,0,0.05,0.01c0.02,0,0.03,0,0.05,0.01c0.04,0.01,0.08,0.02,0.12,0.03
	c0.04,0.01,0.08,0.03,0.11,0.04c0.04,0.02,0.07,0.03,0.1,0.04c0.03,0.01,0.05,0.03,0.07,0.04c0.01,0,0.02,0.01,0.02,0.01
	c0.11,0.05,0.2,0.12,0.29,0.19c0.02,0.01,0.03,0.03,0.05,0.04c0.01,0.01,0.02,0.01,0.03,0.02c0,0.01,0.01,0.02,0.02,0.03
	c0.01,0,0.01,0.01,0.02,0.01c0.02,0.02,0.03,0.03,0.05,0.05c0.03,0.04,0.07,0.08,0.1,0.12c0.03,0.03,0.05,0.05,0.07,0.08
	c0.03,0.04,0.06,0.09,0.08,0.13c0.01,0.01,0.02,0.03,0.03,0.04c0.01,0.03,0.03,0.06,0.05,0.09c0,0.02,0.01,0.03,0.02,0.05l0.02,0.05
	c0.03,0.06,0.05,0.12,0.07,0.18c0.01,0.03,0.01,0.05,0.02,0.07c0.01,0.03,0.02,0.07,0.02,0.1c0.01,0.03,0.02,0.06,0.02,0.09
	C674.77,138.75,674.77,138.84,674.77,138.94z"/>
<path class="st5" d="M239.46,124.72c-0.67-2.06-1.84-3.85-3.66-5.14"/>
<path class="st5" d="M216.15,231.72c-7.84-4.17-12.85-13.58-11.31-22.41c1.29-7.36,6.37-13.49,11.96-18.45"/>
<path class="st5" d="M223.1,182.81c3.73,2.22,5.34,6.95,5.12,11.28c-0.03,0.52-0.07,1.03-0.14,1.55"/>
<path class="st5" d="M190.33,310.13c0.55,2.1,0.92,4.25,1.08,6.42c0.12,1.66-0.03,3.64-1.44,4.52"/>
<path class="st5" d="M160.57,279.03c-2.19-0.9-4.42-1.69-6.68-2.37"/>
<path class="st3" d="M317.67,429.85l-0.28,7.26l-41.94,9.68c3.62-3.97,6.14-8.95,9.25-13.39c1.66-2.38,3.65-4.68,5.93-6.49
	c0.01-0.01,0.02-0.02,0.03-0.02c0.28-0.22,0.55-0.44,0.84-0.64c4.21-0.81,9.4-1.07,12.45,0.15c3.64,1.46,6.67,4.64,10.6,4.84
	c0.78,0.04,1.6-0.06,2.25-0.47C317.17,430.54,317.46,430.22,317.67,429.85z"/>
<path class="st5" d="M270.89,430.25c5.17-6,11.94-10.6,19.43-13.18c4.47-1.54,10.3-1.98,13.1,1.84c0.65,0.88,1.05,2.11,0.48,3.04
	c-0.72,1.16-2.38,1.1-3.75,1.13c-3.18,0.05-6.08,1.29-8.65,3.17"/>
<path class="st5" d="M278.45,417.6c2.63-1.55,9.65-5.92,17.38-5.85c10.01,0.08,16.15,5.96,20.76,12.49
	c0.47,0.68,0.92,1.39,1.21,2.16"/>
<path class="st5" d="M153.91,378.17c-2.62-1.56-5.32-2.97-8.16-4.15"/>
<path class="st5" d="M181.86,326.95c1.79,0.13,3.64-0.19,5.29-0.89c3.7-1.58,6.48-4.79,8.5-8.27c2.02-3.48,3.4-7.29,5.16-10.91
	c1.87-3.85,4.17-7.51,6.88-10.83c2.4-2.93,5.11-5.6,8.08-7.94"/>
<path class="st5" d="M314.13,302.49c-0.82,11.44,0.23,23,3.09,34.1c0.88,3.41,1.92,6.82,2.99,10.24"/>
<path class="st5" d="M284.52,161.16c0.62,0.24,1.22,0.52,1.81,0.86c4.61,2.64,7.02,7.91,8.49,13.01"/>
<path class="st5" d="M242.12,117.29c2.04-1.52,4.57-3.11,6.94-2.22c2.19,0.81,2.93,3.11,3.03,5.57"/>
<path class="st5" d="M233.1,214.11c6.27,5.93,14.64,9.8,23.26,9.89c5.61,0.05,11.27-1.6,15.91-4.7"/>
<path class="st6" d="M280.57,293.47c-0.55-5.02-1.11-10.1-2.8-14.85c-1.62-4.56-4.39-8.86-8.45-11.46
	c2.37-9.24,3.18-18.81,3.32-28.45c0.02-1.18,0.03-2.37,0.02-3.56c0.99,1.17,1.92,2.4,2.79,3.68c1.05,1.53,2,3.12,2.85,4.77
	c0.64,1.23,1.21,2.49,1.73,3.77C285.86,261.84,283.84,278.21,280.57,293.47z"/>
<path class="st6" d="M264.69,269.75c-0.56,1.65-1.52,3.2-2.65,4.53c-2.18,2.57-4.96,4.56-7.26,7.01
	c-4.11,4.39-6.58,10.28-6.82,16.29c-0.97-5.82-3.33-11.41-6.83-16.16c-2.57-3.5-5.72-6.53-8.54-9.83
	c-9.71-11.35-15.27-25.53-20.37-39.62c1.33-0.01,2.64-0.08,3.93-0.25c1.31,0.71,2.7,1.26,4.16,1.64c1.06,0.28,2.17,0.48,3.27,0.71
	c1.7,4.49,4.42,8.4,7.69,11.93c-0.55,0.97-1.31,1.81-2.29,2.4c-0.69,0.42-1.48,0.74-1.98,1.39c-1.01,1.31-0.2,3.4,1.26,4.18
	c1.46,0.79,3.26,0.57,4.83,0.06c1.56-0.51,2.99-1.31,4.26-2.34c3.19,2.68,6.59,5.14,9.94,7.52
	C252.79,263.13,258.51,267.14,264.69,269.75z"/>
<path class="st5" d="M233.05,117.57c-0.64-0.56-1.34-1.04-2.07-1.45"/>
<path class="st5" d="M290.75,212.88c3.02,1.74,6.6,2.44,10.08,2.11"/>
<path class="st0" d="M231.27,246c-3.27-3.53-5.99-7.44-7.69-11.93c2.35,0.47,4.66,1.03,6.43,2.58
	C232.6,238.91,232.93,243.07,231.27,246z"/>
<path class="st5" d="M63.82,430.66c2.35-2.19,4.85-4.21,7.53-6.06"/>
<path class="st3" d="M219.61,447.83c-2.24,2.1-4.04,4.66-5.26,7.48c-0.85-0.29-1.72-0.48-2.62-0.46c-1.09,0.03-2.16,0.36-3.25,0.34
	c-3.68-0.07-6.04-3.9-7.28-7.36c-0.81-2.28-1.46-4.61-1.92-6.99C206.06,443.17,212.83,445.5,219.61,447.83z"/>
<path class="st6" d="M475.96,304.54l-0.29,4.87l-2.04,34.32l-1.1,18.6l-1.47,24.74l-1.19,20.13l-55.82,13.64L262,458h-7.63
	c-0.91-0.58-1.65-1.42-2.1-2.42c7.64,0.08,15.35-1.72,21.04-6.68c0.76-0.66,1.47-1.37,2.14-2.11l41.94-9.68l0.28-7.26l0.13-3.45
	l0.34-8.66l2.68-68.91l0.26-6.74l0.01-0.04l0.09-2.41c0.1-2.84,1.53-5.38,3.74-6.96c0.95-0.68,2.05-1.19,3.25-1.46l23.4-5.31
	l111.24-25.26l6.76-1.53C472.98,298.35,476.17,301.06,475.96,304.54z"/>
<path class="st7" d="M632.06,122.26c0-7.45,2.33-14.36,6.31-20.03H303v51.79c2.01,0.95,3.9,2.19,5.59,3.65v-28.41h180.03v81.56
	H310.53c-0.43,0.4-0.89,0.77-1.37,1.12c-1.84,1.33-3.95,2.23-6.16,2.72v33.91c7.76,3.48,13.42,10.76,17.66,18.59h313.79
	c4.12,0,7.47-3.35,7.47-7.48v-113.1C635.82,140.29,632.06,131.71,632.06,122.26z M313.28,116.27c-2.75,0-4.98-2.23-4.98-4.98
	s2.23-4.99,4.98-4.99s4.98,2.24,4.98,4.99S316.03,116.27,313.28,116.27z M354.66,114.91h-28.78v-6.79h28.78V114.91z M404.27,112.87
	h-42.14v-3.39h42.14V112.87z M431.23,112.87H414.7v-3.39h16.53V112.87z M466.8,112.87h-25.15v-3.39h25.15V112.87z M564.6,133.86
	h28.64v5.21H564.6V133.86z M530.49,133.86h29.28v5.21h-29.28V133.86z M497.41,133.86h28.24v5.21h-28.24V133.86z M497.41,142.92
	h81.51v5.21h-81.51V142.92z M497.41,151.98h95.83v5.21h-95.83V151.98z M497.41,161.04h47.92v5.21h-47.92V161.04z M492.55,174.87
	h68.87v35.95h-68.87V174.87z M478.58,246.99H308.3v-5.39h170.28V246.99z M600.7,238.84H308.3v-5.39h292.4V238.84z M600.7,229.31
	H308.3v-8.28h292.4V229.31z M634.48,210.82h-68.87v-35.95h68.87V210.82z"/>
<path class="st5" d="M395.84,166.11h-3.22c0.67-0.42,1.22-1,1.61-1.7C394.62,165.11,395.17,165.69,395.84,166.11z"/>
<path class="st1" d="M608.11,88.25c0,2.05-1.66,3.71-3.71,3.71c-2.05,0-3.7-1.66-3.7-3.71s1.65-3.7,3.7-3.7
	C606.45,84.55,608.11,86.2,608.11,88.25z"/>
<path class="st1" d="M620.96,88.25c0,2.05-1.65,3.71-3.7,3.71s-3.7-1.66-3.7-3.71s1.65-3.7,3.7-3.7S620.96,86.2,620.96,88.25z"/>
<path class="st1" d="M633.82,88.25c0,2.05-1.65,3.71-3.7,3.71s-3.71-1.66-3.71-3.71s1.66-3.7,3.71-3.7S633.82,86.2,633.82,88.25z"/>
<path class="st3" d="M308.59,129.26v28.41c2.38,2.04,4.38,4.51,5.85,7.29c3.1,5.91,3.7,13.08,1.63,19.42
	c-0.5,1.53-1.15,3.03-1.24,4.63c-0.11,1.95,0.62,3.83,1.01,5.74c1.2,5.78-0.95,12.11-5.31,16.07h178.09v-81.56H308.59z
	 M413.86,181.67l-7.1-3.49v3.57c0,1.62-1.32,2.94-2.94,2.94h-19.03c-1.63,0-2.95-1.32-2.95-2.94v-12.69c0-1.63,1.32-2.95,2.95-2.95
	h2.74c-1.33-0.84-2.21-2.32-2.21-4.01c0-2.63,2.13-4.76,4.75-4.76c1.79,0,3.35,0.98,4.16,2.44c0.81-1.46,2.37-2.44,4.16-2.44
	c2.62,0,4.75,2.13,4.75,4.76c0,1.69-0.88,3.17-2.21,4.01h2.89c1.62,0,2.94,1.32,2.94,2.95v4.23l7.1-3.85V181.67z"/>
<path class="st4" d="M406.76,173.29v-4.23c0-1.63-1.32-2.95-2.94-2.95h-2.89c1.33-0.84,2.21-2.32,2.21-4.01
	c0-2.63-2.13-4.76-4.75-4.76c-1.79,0-3.35,0.98-4.16,2.44c-0.81-1.46-2.37-2.44-4.16-2.44c-2.62,0-4.75,2.13-4.75,4.76
	c0,1.69,0.88,3.17,2.21,4.01h-2.74c-1.63,0-2.95,1.32-2.95,2.95v12.69c0,1.62,1.32,2.94,2.95,2.94h19.03c1.62,0,2.94-1.32,2.94-2.94
	v-3.57l7.1,3.49v-12.23L406.76,173.29z M392.62,166.11c0.67-0.42,1.22-1,1.61-1.7c0.39,0.7,0.94,1.28,1.61,1.7H392.62z"/>
<path class="st3" d="M395.84,166.11h-3.22c0.67-0.42,1.22-1,1.61-1.7C394.62,165.11,395.17,165.69,395.84,166.11z"/>
<path class="st3" d="M492.55,174.87v35.95h68.87v-35.95H492.55z M516.19,201.91l7.81-15.75l4.31,7.25l2.72-3.73l6.23,12.23H516.19z
	 M538.79,187.07c-1.22,0-2.21-0.99-2.21-2.21s0.99-2.21,2.21-2.21c1.21,0,2.2,0.99,2.2,2.21S540,187.07,538.79,187.07z"/>
<polygon class="st4" points="537.26,201.91 516.19,201.91 524,186.16 528.31,193.41 531.03,189.68 "/>
<path class="st4" d="M540.99,184.86c0,1.22-0.99,2.21-2.2,2.21c-1.22,0-2.21-0.99-2.21-2.21s0.99-2.21,2.21-2.21
	C540,182.65,540.99,183.64,540.99,184.86z"/>
<path class="st3" d="M565.61,174.87v35.95h68.87v-35.95H565.61z M589.25,201.91l7.82-15.75l4.3,7.25l2.72-3.73l6.23,12.23H589.25z
	 M611.85,187.07c-1.22,0-2.21-0.99-2.21-2.21s0.99-2.21,2.21-2.21c1.22,0,2.21,0.99,2.21,2.21S613.07,187.07,611.85,187.07z"/>
<polygon class="st4" points="610.32,201.91 589.25,201.91 597.07,186.16 601.37,193.41 604.09,189.68 "/>
<path class="st4" d="M614.06,184.86c0,1.22-0.99,2.21-2.21,2.21c-1.22,0-2.21-0.99-2.21-2.21s0.99-2.21,2.21-2.21
	C613.07,182.65,614.06,183.64,614.06,184.86z"/>
<rect x="325.88" y="108.12" class="st1" width="28.78" height="6.79"/>
<rect x="362.13" y="109.48" class="st1" width="42.14" height="3.39"/>
<rect x="414.7" y="109.48" class="st1" width="16.53" height="3.39"/>
<rect x="441.65" y="109.48" class="st1" width="25.15" height="3.39"/>
<path class="st2" d="M318.26,111.29c0,2.75-2.23,4.98-4.98,4.98s-4.98-2.23-4.98-4.98s2.23-4.99,4.98-4.99
	S318.26,108.54,318.26,111.29z"/>
<path class="st4" d="M586.49,88.25c0,1.03-0.41,1.95-1.09,2.62c-0.66,0.67-1.59,1.09-2.61,1.09H321.97c-2.05,0-3.71-1.66-3.71-3.71
	c0-1.03,0.42-1.95,1.09-2.62c0.67-0.67,1.59-1.08,2.62-1.08h260.82C584.83,84.55,586.49,86.2,586.49,88.25z"/>
<rect x="497.41" y="133.86" class="st2" width="28.24" height="5.21"/>
<rect x="530.49" y="133.86" class="st2" width="29.28" height="5.21"/>
<rect x="564.6" y="133.86" class="st2" width="28.64" height="5.21"/>
<rect x="497.41" y="142.92" class="st1" width="81.51" height="5.21"/>
<rect x="497.41" y="151.98" class="st1" width="95.83" height="5.21"/>
<rect x="497.41" y="161.04" class="st1" width="47.92" height="5.21"/>
<rect x="308.3" y="221.03" class="st1" width="292.4" height="8.28"/>
<rect x="308.3" y="233.45" class="st1" width="292.4" height="5.39"/>
<rect x="308.3" y="241.6" class="st1" width="170.28" height="5.39"/>
<path class="st7" d="M525.65,295.25c-20.79,0-39.13,5.62-49.98,14.16l-2.04,34.32c10.48,9.51,29.86,15.89,52.02,15.89
	c33.32,0,60.33-14.41,60.33-32.19C585.98,309.66,558.97,295.25,525.65,295.25z M509.92,332.71c-1.38,1.29-2.92,2.21-4.61,2.76
	s-3.84,0.83-6.46,0.83h-5.94l-1.64,8.45h-6.93l6.19-31.8h13.31c4.01,0,6.94,1.05,8.78,3.15c1.83,2.11,2.39,5.04,1.65,8.81
	c-0.3,1.56-0.81,2.98-1.53,4.26C512.02,330.46,511.08,331.64,509.92,332.71z M530.8,336.3l2.73-14.07c0.32-1.6,0.2-2.7-0.34-3.28
	c-0.54-0.58-1.69-0.87-3.45-0.87h-5.49l-3.54,18.22h-6.87l6.17-31.81h6.88l-1.64,8.46h6.12c3.85,0,6.51,0.67,7.97,2.01
	c1.46,1.35,1.9,3.53,1.32,6.54l-2.88,14.8H530.8z M568.35,324.91c-0.31,1.56-0.82,2.98-1.53,4.26c-0.72,1.29-1.67,2.47-2.82,3.54
	c-1.39,1.29-2.92,2.21-4.62,2.76c-1.69,0.55-3.84,0.83-6.46,0.83h-5.93l-1.65,8.45h-6.93l6.19-31.8h13.32
	c4.01,0,6.93,1.05,8.77,3.15C568.52,318.21,569.08,321.14,568.35,324.91z"/>
<path class="st6" d="M512.62,316.1c-1.84-2.1-4.77-3.15-8.78-3.15h-13.31l-6.19,31.8h6.93l1.64-8.45h5.94
	c2.62,0,4.77-0.28,6.46-0.83s3.23-1.47,4.61-2.76c1.16-1.07,2.1-2.25,2.82-3.54c0.72-1.28,1.23-2.7,1.53-4.26
	C515.01,321.14,514.45,318.21,512.62,316.1z M507.11,324.43c-0.48,2.46-1.4,4.22-2.77,5.27c-1.36,1.05-3.45,1.58-6.24,1.58h-4.21
	l2.59-13.31h4.74c2.63,0,4.39,0.49,5.27,1.46C507.36,320.4,507.57,322.07,507.11,324.43z"/>
<path class="st7" d="M507.11,324.43c-0.48,2.46-1.4,4.22-2.77,5.27c-1.36,1.05-3.45,1.58-6.24,1.58h-4.21l2.59-13.31h4.74
	c2.63,0,4.39,0.49,5.27,1.46C507.36,320.4,507.57,322.07,507.11,324.43z"/>
<path class="st6" d="M540.66,321.5l-2.88,14.8h-6.98l2.73-14.07c0.32-1.6,0.2-2.7-0.34-3.28c-0.54-0.58-1.69-0.87-3.45-0.87h-5.49
	l-3.54,18.22h-6.87l6.17-31.81h6.88l-1.64,8.46h6.12c3.85,0,6.51,0.67,7.97,2.01C540.8,316.31,541.24,318.49,540.66,321.5z"/>
<path class="st6" d="M566.69,316.1c-1.84-2.1-4.76-3.15-8.77-3.15H544.6l-6.19,31.8h6.93l1.65-8.45h5.93c2.62,0,4.77-0.28,6.46-0.83
	c1.7-0.55,3.23-1.47,4.62-2.76c1.15-1.07,2.1-2.25,2.82-3.54c0.71-1.28,1.22-2.7,1.53-4.26
	C569.08,321.14,568.52,318.21,566.69,316.1z M561.18,324.43c-0.47,2.46-1.4,4.22-2.76,5.27c-1.37,1.05-3.45,1.58-6.24,1.58h-4.22
	l2.59-13.31h4.74c2.64,0,4.39,0.49,5.27,1.46C561.44,320.4,561.65,322.07,561.18,324.43z"/>
<path class="st7" d="M561.18,324.43c-0.47,2.46-1.4,4.22-2.76,5.27c-1.37,1.05-3.45,1.58-6.24,1.58h-4.22l2.59-13.31h4.74
	c2.64,0,4.39,0.49,5.27,1.46C561.44,320.4,561.65,322.07,561.18,324.43z"/>
<path class="st8" d="M217.88,414.87c-7.9-3.22-15.89-6.26-23.54-9.92c-1.28-10.24-6.37-19.92-9.38-29.94
	c-0.37-1.22-0.71-2.45-1.01-3.68c-0.16-0.61-0.3-1.23-0.44-1.85c-0.14-0.62-0.28-1.24-0.4-1.86c-0.14-0.68-0.27-1.37-0.39-2.06
	c-0.11-0.56-0.2-1.12-0.29-1.68c-0.1-0.62-0.19-1.25-0.28-1.88c-0.08-0.58-0.16-1.17-0.23-1.75c-0.09-0.69-0.16-1.38-0.24-2.08
	c-0.04-0.48-0.09-0.97-0.13-1.45c-0.02-0.15-0.03-0.29-0.04-0.44c-0.04-0.39-0.07-0.77-0.1-1.16c-0.01-0.09-0.01-0.17-0.02-0.26
	c-0.05-0.77-0.1-1.56-0.14-2.33c-0.03-0.59-0.06-1.19-0.08-1.79c-6.75,0.74-13.4,2.44-19.66,5.06c0.17-0.41,0.35-0.83,0.53-1.24
	c0.11-0.26,0.22-0.52,0.34-0.78c0.09-0.21,0.18-0.41,0.27-0.61c0.22-0.51,0.45-1.01,0.68-1.51c0.2-0.45,0.41-0.9,0.63-1.36
	c0.44-0.95,0.89-1.9,1.35-2.84c0.22-0.44,0.43-0.89,0.66-1.32c0.68-1.38,1.39-2.74,2.12-4.1c0.36-0.68,0.73-1.35,1.1-2.02v-0.01
	c3.99-0.59,7.99-1.19,11.99-1.78c0.14-3.77,0.38-7.53,0.68-11.28c1.79,0.13,3.64-0.19,5.29-0.89c3.7-1.58,6.48-4.79,8.5-8.27
	c0.69-1.2,1.31-2.43,1.9-3.69c-0.06,12.42,0.82,24.84,2.6,37.13C203.3,373.09,209.27,394.54,217.88,414.87z"/>
<path class="st8" d="M237.35,251.69c-1.27,1.03-2.7,1.83-4.26,2.34c-1.57,0.51-3.37,0.73-4.83-0.06c-1.46-0.78-2.27-2.87-1.26-4.18
	c0.5-0.65,1.29-0.97,1.98-1.39c0.98-0.59,1.74-1.43,2.29-2.4c-0.72-0.78-1.42-1.58-2.08-2.41c-3.42,1.83-6.78,3.77-10.08,5.83
	c-16.56,10.26-31.52,23.1-44.25,37.86c-10.72,12.42-19.86,26.2-27.04,40.95c-7,14.37-12.24,30.12-11.64,46.01
	c0.05,1.3,0.14,2.6,0.27,3.9c2.32,23.28,18.4,43.72,39.23,54.58c-8.87-3.05-17.75-6.11-26.62-9.16c-10.51-3.62-21.66-7.7-28.91-15.9
	c-1.38,7.6-1.79,15.49-4.96,22.52C110.5,440.6,100.08,448.66,94.1,458H44.45c4.96-10.3,11.19-19.75,19.37-27.34
	c8.85-31.78,27.93-61.91,56.05-77.36c0.44-1.03,0.89-2.05,1.35-3.07c9.05-20.24,19.5-39.85,31.25-58.66v-0.01
	c-1.32-3.14-4.11-7.03-4.6-9.74c-0.29-1.67-0.59-3.39-0.27-5.05c0.74-3.97,4.56-6.44,7.69-8.99c6.71-5.47,11.33-13.02,16.61-19.88
	c5.29-6.87,11.83-13.43,20.24-15.49c1.74-0.42,3.52-0.65,5.32-0.74c-3.46-2.54-6.92-5.07-10.38-7.61c-1.58-1.15-3.19-2.34-4.28-3.96
	c-3.25-4.83-0.84-11.38,2.18-16.36s6.74-10.28,5.86-16.03c-0.51-3.31-2.54-6.35-2.4-9.69c0.22-5.03,5.22-8.69,6.16-13.65
	c0.72-3.87-1.15-7.71-1.6-11.63c-0.53-4.61,0.95-9.22,2.85-13.45c0.8-1.77,1.69-3.54,3.09-4.88c1.59-1.51,3.68-2.34,5.45-3.63
	c4.77-3.49,6.65-9.87,11.27-13.56c0.49-0.39,1.01-0.74,1.55-1.05c0.8,5.13,3.11,10.12,5.98,14.51c1.11,1.71,2.35,3.45,2.57,5.48
	c0.48,4.37-3.73,7.66-5.58,11.64c-2.25,4.82-0.84,10.71,2.21,15.08c2.45,3.51,5.81,6.24,9.29,8.77c-0.05,0.06-0.1,0.12-0.15,0.18
	c-0.15,0.18-0.31,0.36-0.48,0.53c-0.18,0.2-0.37,0.38-0.56,0.56s-0.39,0.36-0.59,0.53c-0.63,0.54-1.33,1.05-1.66,1.8
	c-0.68,1.53,0.43,3.2,1.23,4.67c2.7,4.9,1.91,11.29-1.39,15.72c-0.49,3.76-1.98,7.37-3.33,10.94c-1.54,4.06-2.94,8.33-2.51,12.65
	c0.26,2.56,1.4,5.3,3.76,6.33c1.32,0.58,2.81,0.53,4.24,0.69c6.42,0.72,11.96,6.31,12.62,12.74
	C243.35,243.79,241.09,248.69,237.35,251.69z"/>
<path class="st8" d="M319.35,85.63c-0.67,0.67-1.09,1.59-1.09,2.62c0,2.05,1.66,3.71,3.71,3.71h173.38
	c-3.54,3.29-6.96,6.72-10.24,10.27H303V82.52c0-4.13,3.35-7.48,7.48-7.48h205.77c-4.27,3.01-8.43,6.18-12.45,9.51H321.97
	C320.94,84.55,320.02,84.96,319.35,85.63z"/>
<path class="st8" d="M130.19,153.41c-6.23,4.32-11.87,9.58-16.61,15.52c-1.91,2.4-3.68,4.92-5.29,7.52
	c-0.21,0.34-0.42,0.69-0.62,1.03c-1.84,3.1-3.48,6.33-4.85,9.67c-1.31,3.17-2.38,6.43-3.15,9.75v0.01c-0.82,3.58-1.3,7.22-1.35,10.9
	c-0.06,4.11,0.44,8.26,1.51,12.24c-16.94-3.6-29.65-18.65-29.65-36.67c0-20.7,16.78-37.49,37.49-37.49
	C116.12,145.89,123.92,148.69,130.19,153.41z"/>
<path class="st8" d="M213.37,458c0.27-0.92,0.6-1.82,0.98-2.69c-0.85-0.29-1.72-0.48-2.62-0.46c-1.09,0.03-2.16,0.36-3.25,0.34
	c-3.68-0.07-6.04-3.9-7.28-7.36c-0.81-2.28-1.46-4.61-1.92-6.99c6.78,2.33,13.55,4.66,20.33,6.99c0.64,0.22,1.28,0.44,1.92,0.66
	c8.3,2.85,16.68,5.73,25.4,6.75c1.75,0.2,3.54,0.33,5.34,0.34c0.45,1,1.19,1.84,2.1,2.42H213.37z"/>
<path class="st8" d="M372.69,430.95L262,458h-7.63c-0.91-0.58-1.65-1.42-2.1-2.42c7.64,0.08,15.35-1.72,21.04-6.68
	c0.76-0.66,1.47-1.37,2.14-2.11l41.94-9.68l0.28-7.26l0.13-3.45l0.34-8.66l2.68-68.91l0.26-6.74l0.01-0.04l0.09-2.41
	c0.1-2.84,1.53-5.38,3.74-6.96c0.95-0.68,2.05-1.19,3.25-1.46l23.4-5.31l61.85-14.05C384.84,344.05,369.22,387.96,372.69,430.95z"/>
<path class="st4" d="M303,102.23v51.79c2.01,0.95,3.9,2.19,5.59,3.65v-28.41h155.84c2.28-3.58,4.66-7.11,7.15-10.55
	c4.19-5.77,8.71-11.27,13.53-16.48H303z M313.28,116.27c-2.75,0-4.98-2.23-4.98-4.98s2.23-4.99,4.98-4.99s4.98,2.24,4.98,4.99
	S316.03,116.27,313.28,116.27z M354.66,114.91h-28.78v-6.79h28.78V114.91z M404.27,112.87h-42.14v-3.39h42.14V112.87z
	 M431.23,112.87H414.7v-3.39h16.53V112.87z M466.8,112.87h-25.15v-3.39h25.15V112.87z"/>
<path class="st4" d="M308.3,221.03v8.28h106.74c-0.51,1.38-1.01,2.76-1.49,4.14H308.3v5.39h103.38c-0.3,0.92-0.61,1.84-0.91,2.76
	H308.3v5.39h100.76c-2.05,6.66-3.88,13.38-5.45,20.17h-82.95c-4.24-7.83-9.9-15.11-17.66-18.59v-33.91
	c2.21-0.49,4.32-1.39,6.16-2.72c0.48-0.35,0.94-0.72,1.37-1.12h111.83c-1.43,3.39-2.83,6.79-4.17,10.21H308.3z"/>
<path class="st8" d="M308.59,129.26v28.41c2.38,2.04,4.38,4.51,5.85,7.29c3.1,5.91,3.7,13.08,1.63,19.42
	c-0.5,1.53-1.15,3.03-1.24,4.63c-0.11,1.95,0.62,3.83,1.01,5.74c1.2,5.78-0.95,12.11-5.31,16.07h111.83
	c8.04-18.99,17.4-37.52,27.16-55.65c4.72-8.78,9.56-17.51,14.91-25.91H308.59z M413.86,181.67l-7.1-3.49v3.57
	c0,1.62-1.32,2.94-2.94,2.94h-19.03c-1.63,0-2.95-1.32-2.95-2.94v-12.69c0-1.63,1.32-2.95,2.95-2.95h2.74
	c-1.33-0.84-2.21-2.32-2.21-4.01c0-2.63,2.13-4.76,4.75-4.76c1.79,0,3.35,0.98,4.16,2.44c0.81-1.46,2.37-2.44,4.16-2.44
	c2.62,0,4.75,2.13,4.75,4.76c0,1.69-0.88,3.17-2.21,4.01h2.89c1.62,0,2.94,1.32,2.94,2.95v4.23l7.1-3.85V181.67z"/>
<path class="st8" d="M318.26,111.29c0,2.75-2.23,4.98-4.98,4.98s-4.98-2.23-4.98-4.98s2.23-4.99,4.98-4.99
	S318.26,108.54,318.26,111.29z"/>
<path class="st8" d="M418.19,221.03c-1.09,2.75-2.14,5.51-3.15,8.28H308.3v-8.28H418.19z"/>
<path class="st8" d="M413.55,233.45c-0.64,1.79-1.26,3.59-1.87,5.39H308.3v-5.39H413.55z"/>
<path class="st8" d="M410.77,241.6c-0.59,1.79-1.16,3.59-1.71,5.39H308.3v-5.39H410.77z"/>
<path class="st4" d="M525.65,295.25c-20.79,0-39.13,5.62-49.98,14.16l-2.04,34.32c8.6,7.8,23.18,13.5,40.38,15.29
	c2.59-14.77,9.27-28.81,19.01-40.22c-0.59-0.48-1.68-0.72-3.28-0.72h-5.49l-3.54,18.22h-6.87l6.17-31.81h6.88l-1.64,8.46h6.12
	c2.62,0,4.7,0.31,6.21,0.93c2.67-2.66,5.53-5.14,8.55-7.4c3.33-2.49,6.86-4.71,10.54-6.65C547.61,296.92,537,295.25,525.65,295.25z
	 M514.27,324.91c-0.3,1.56-0.81,2.98-1.53,4.26c-0.72,1.29-1.66,2.47-2.82,3.54c-1.38,1.29-2.92,2.21-4.61,2.76
	s-3.84,0.83-6.46,0.83h-5.94l-1.64,8.45h-6.93l6.19-31.8h13.31c4.01,0,6.94,1.05,8.78,3.15
	C514.45,318.21,515.01,321.14,514.27,324.91z"/>
<path class="st8" d="M512.62,316.1c-1.84-2.1-4.77-3.15-8.78-3.15h-13.31l-6.19,31.8h6.93l1.64-8.45h5.94
	c2.62,0,4.77-0.28,6.46-0.83s3.23-1.47,4.61-2.76c1.16-1.07,2.1-2.25,2.82-3.54c0.72-1.28,1.23-2.7,1.53-4.26
	C515.01,321.14,514.45,318.21,512.62,316.1z M507.11,324.43c-0.48,2.46-1.4,4.22-2.77,5.27c-1.36,1.05-3.45,1.58-6.24,1.58h-4.21
	l2.59-13.31h4.74c2.63,0,4.39,0.49,5.27,1.46C507.36,320.4,507.57,322.07,507.11,324.43z"/>
<path class="st8" d="M507.11,324.43c-0.48,2.46-1.4,4.22-2.77,5.27c-1.36,1.05-3.45,1.58-6.24,1.58h-4.21l2.59-13.31h4.74
	c2.63,0,4.39,0.49,5.27,1.46C507.36,320.4,507.57,322.07,507.11,324.43z"/>
<path class="st8" d="M537.58,313.88c-1.59,1.58-3.11,3.22-4.56,4.92c-0.59-0.48-1.68-0.72-3.28-0.72h-5.49l-3.54,18.22h-6.87
	l6.17-31.81h6.88l-1.64,8.46h6.12C533.99,312.95,536.07,313.26,537.58,313.88z"/>
<path class="st9" d="M318.14,417.74l-0.34,8.66l-0.13,3.45c-0.21,0.37-0.5,0.69-0.87,0.92c-0.65,0.41-1.47,0.51-2.25,0.47
	c-3.93-0.2-6.96-3.38-10.6-4.84c-3.05-1.22-8.24-0.96-12.45-0.15c-0.29,0.2-0.56,0.42-0.84,0.64c-0.01,0-0.02,0.01-0.03,0.02
	c-2.28,1.81-4.27,4.11-5.93,6.49c-3.11,4.44-5.63,9.42-9.25,13.39c-0.67,0.74-1.38,1.45-2.14,2.11c-5.69,4.96-13.4,6.76-21.04,6.68
	c-1.8-0.01-3.59-0.14-5.34-0.34c-8.72-1.02-17.1-3.9-25.4-6.75c-0.64-0.22-1.28-0.44-1.92-0.66c-6.78-2.33-13.55-4.66-20.33-6.99
	c-16.74-5.76-33.48-11.52-50.22-17.28c-11.59-3.99-23.95-8.54-31.03-18.55c-5.54-7.83-6.93-18.02-5.67-27.52
	c1.11-8.4,4.12-16.4,7.51-24.19c0.44-1.03,0.89-2.05,1.35-3.07c9.05-20.24,19.5-39.85,31.25-58.66v-0.01
	c2.63-4.22,5.33-8.4,8.1-12.53c6.81,2.81,13.17,6.71,18.4,11.88c5.35,5.29,9.45,11.97,11.36,19.22c-4.44,5-8.57,10.27-12.36,15.75
	c-3.17,4.57-6.1,9.29-8.78,14.13v0.01c-6.68,12.06-11.85,24.9-15.28,38.15c10.01,5.95,18.78,14.12,28.69,20.37
	c3.78,2.39,7.71,4.49,11.74,6.41c11.55,5.53,23.85,9.63,35.49,15.07c3.49,1.63,6.97,3.4,10.73,4.18c9.21,1.92,18.52-2.24,26.73-6.82
	c8.22-4.57,16.59-9.81,25.98-10.27c7.51-0.37,17.42,3.02,22.73,8.35C316.73,416.19,317.43,416.97,318.14,417.74z"/>
<path class="st9" d="M283.32,203.48c-1.13,3.39-2.53,6.72-4.6,9.62c-1.74,2.46-3.95,4.54-6.45,6.2c0.21,5.27,0.38,10.57,0.39,15.85
	c0.01,1.19,0,2.38-0.02,3.56c-0.14,9.64-0.95,19.21-3.32,28.45c-0.33,1.31-0.69,2.61-1.08,3.9c-1.2-0.38-2.38-0.82-3.55-1.31
	c-6.18-2.61-11.9-6.62-17.4-10.54c-3.35-2.38-6.75-4.84-9.94-7.52c3.74-3,6-7.9,5.51-12.7c-0.66-6.43-6.2-12.02-12.62-12.74
	c-1.43-0.16-2.92-0.11-4.24-0.69c-2.36-1.03-3.5-3.77-3.76-6.33c-0.43-4.32,0.97-8.59,2.51-12.65c1.35-3.57,2.84-7.18,3.33-10.94
	c3.3-4.43,4.09-10.82,1.39-15.72c-0.8-1.47-1.91-3.14-1.23-4.67c0.33-0.75,1.03-1.26,1.66-1.8c3.3-2.77,5.26-7.06,5.19-11.37
	c-0.03-2.58-0.75-5.11-0.86-7.69c-0.25-6.18,2.99-11.89,4.83-17.79c1.18-3.78,1.59-8.23,0.4-11.88c0.19-0.21,0.39-0.41,0.59-0.61
	c1.66-1.65,3.56-3.15,5.78-3.89c2.04-0.69,4.41-0.65,6.26,0.42c0.04,1.25-0.07,2.53-0.24,3.7c-0.95,6.5-1.64,13.2-0.11,19.59
	c1.54,6.39,5.71,12.49,11.9,14.7c6.63,2.37,14.47,0.05,20.88,2.53C288.24,174.98,287.86,189.9,283.32,203.48z"/>
<path class="st9" d="M351.57,325.91l-23.4,5.31c-1.2,0.27-2.3,0.78-3.25,1.46c4.45-7.24,11.78-12.42,19.73-15.89
	C347.06,319.76,349.37,322.8,351.57,325.91z"/>
<path class="st9" d="M315.84,194.75c1.2,5.78-0.95,12.11-5.31,16.07c-0.43,0.4-0.89,0.77-1.37,1.12c-1.84,1.33-3.95,2.23-6.16,2.72
	c-0.71,0.15-1.44,0.27-2.17,0.33c-0.52,1.17-1.3,2.25-2.21,3.15c-1.99,1.99-4.53,3.32-6.81,4.97c-2.28,1.65-4.42,3.81-5,6.57
	c-0.2,0.97-0.2,2.01-0.61,2.92c-0.37,0.85-1.04,1.51-1.7,2.15c-1.01,0.97-2.02,1.95-3.23,2.66c-1.76,1.04-3.76,1.4-5.82,1.42
	c-0.87-1.28-1.8-2.51-2.79-3.68c-0.01-5.28-0.18-10.58-0.39-15.85c2.5-1.66,4.71-3.74,6.45-6.2c2.07-2.9,3.47-6.23,4.6-9.62
	c4.54-13.58,4.92-28.5,1.2-42.32c-6.41-2.48-14.25-0.16-20.88-2.53c-6.19-2.21-10.36-8.31-11.9-14.7
	c-1.53-6.39-0.84-13.09,0.11-19.59c0.17-1.17,0.28-2.45,0.24-3.7c-1.85-1.07-4.22-1.11-6.26-0.42c-2.22,0.74-4.12,2.24-5.78,3.89
	c-0.2,0.2-0.4,0.4-0.59,0.61c1.19,3.65,0.78,8.1-0.4,11.88c-1.84,5.9-5.08,11.61-4.83,17.79c0.11,2.58,0.83,5.11,0.86,7.69
	c0.07,4.31-1.89,8.6-5.19,11.37c-0.63,0.54-1.33,1.05-1.66,1.8c-0.68,1.53,0.43,3.2,1.23,4.67c2.7,4.9,1.91,11.29-1.39,15.72
	c-0.49,3.76-1.98,7.37-3.33,10.94c-1.54,4.06-2.94,8.33-2.51,12.65c0.26,2.56,1.4,5.3,3.76,6.33c1.32,0.58,2.81,0.53,4.24,0.69
	c6.42,0.72,11.96,6.31,12.62,12.74c0.49,4.8-1.77,9.7-5.51,12.7c-1.27,1.03-2.7,1.83-4.26,2.34c-1.57,0.51-3.37,0.73-4.83-0.06
	c-1.46-0.78-2.27-2.87-1.26-4.18c0.5-0.65,1.29-0.97,1.98-1.39c0.98-0.59,1.74-1.43,2.29-2.4c1.66-2.93,1.33-7.09-1.26-9.35
	c-1.77-1.55-4.08-2.11-6.43-2.58c-1.1-0.23-2.21-0.43-3.27-0.71c-1.46-0.38-2.85-0.93-4.16-1.64c-1.29,0.17-2.6,0.24-3.93,0.25
	c-4.84,0.08-9.88-0.57-14.76-0.3c-3.46-2.54-6.92-5.07-10.38-7.61c-1.58-1.15-3.19-2.34-4.28-3.96c-3.25-4.83-0.84-11.38,2.18-16.36
	c3.02-4.98,6.74-10.28,5.86-16.03c-0.51-3.31-2.54-6.35-2.4-9.69c0.22-5.03,5.22-8.69,6.16-13.65c0.72-3.87-1.15-7.71-1.6-11.63
	c-0.53-4.61,0.95-9.22,2.85-13.45c0.8-1.77,1.69-3.54,3.09-4.88c1.59-1.51,3.68-2.34,5.45-3.63c4.77-3.49,6.65-9.87,11.27-13.56
	c4.25-3.4,10.6-3.75,15.32-1.1c3.69-5.06,8.29-9.47,13.99-11.97c7.11-3.12,16.14-2.67,21.87,2.57c3.06,2.8,5.2,6.85,9.05,8.38
	c1.24,0.5,2.57,0.69,3.87,0.99c8.37,2,15.1,9.58,16.11,18.12c0.66,5.63-0.95,11.31-0.6,16.97c0.01,0.1,0.01,0.21,0.03,0.31
	c1.33,0.43,2.72,0.72,4.07,1.12c1.25,0.37,2.46,0.84,3.63,1.41c2.01,0.95,3.9,2.19,5.59,3.65c2.38,2.04,4.38,4.51,5.85,7.29
	c3.1,5.91,3.7,13.08,1.63,19.42c-0.5,1.53-1.15,3.03-1.24,4.63C314.72,190.96,315.45,192.84,315.84,194.75z"/>
<path class="st9" d="M214.35,455.31c-0.38,0.87-0.71,1.77-0.98,2.69H44.45c4.96-10.3,11.19-19.75,19.37-27.34
	c8.85-31.78,27.93-61.91,56.05-77.36c-3.39,7.79-6.4,15.79-7.51,24.19c-1.26,9.5,0.13,19.69,5.67,27.52
	c7.08,10.01,19.44,14.56,31.03,18.55c16.74,5.76,33.48,11.52,50.22,17.28c0.46,2.38,1.11,4.71,1.92,6.99
	c1.24,3.46,3.6,7.29,7.28,7.36c1.09,0.02,2.16-0.31,3.25-0.34C212.63,454.83,213.5,455.02,214.35,455.31z"/>
<path class="st9" d="M194.34,404.95c-4.03-1.92-7.96-4.02-11.74-6.41c-9.91-6.25-18.68-14.42-28.69-20.37
	c3.43-13.25,8.6-26.09,15.28-38.15v-0.01c3.99-0.59,7.99-1.19,11.99-1.78c-0.45,12.46,0.2,24.9,3.78,36.78
	C187.97,385.03,193.06,394.71,194.34,404.95z"/>
<path class="st9" d="M530.86,448.53c-0.24,3.16-0.52,6.32-0.83,9.47h-96.02c-0.4-1.15-0.8-2.31-1.2-3.46
	c-4.22-12.17-9.53-25.46-18.76-33.7l55.82-13.64l1.19-20.13c4.51-1.68,9.11-3.11,13.77-4.3c3.75-0.96,7.61-1.75,11.46-1.36
	c9.03,0.94,16.05,8.16,21.41,15.49c5.22,7.14,9.74,14.96,11.93,23.53C531.97,429.55,531.58,439.14,530.86,448.53z"/>
<path class="st9" d="M254.37,458h-41c0.27-0.92,0.6-1.82,0.98-2.69c1.22-2.82,3.02-5.38,5.26-7.48c0.64,0.22,1.28,0.44,1.92,0.66
	c8.3,2.85,16.68,5.73,25.4,6.75c1.75,0.2,3.54,0.33,5.34,0.34C252.72,456.58,253.46,457.42,254.37,458z"/>
<path class="st9" d="M434.01,458H262l152.05-37.16c9.23,8.24,14.54,21.53,18.76,33.7C433.21,455.69,433.61,456.85,434.01,458z"/>
<path class="st9" d="M350.75,313.96c-0.35,0.6-1.07,0.86-1.73,1.1c-1.47,0.52-2.93,1.09-4.37,1.73
	c-7.95,3.47-15.28,8.65-19.73,15.89c-2.21,1.58-3.64,4.12-3.74,6.96l-0.09,2.41l-0.01,0.04l-0.26,6.74l-2.68,68.91
	c-0.71-0.77-1.41-1.55-2.14-2.28c-5.31-5.33-15.22-8.72-22.73-8.35c-9.39,0.46-17.76,5.7-25.98,10.27
	c-8.21,4.58-17.52,8.74-26.73,6.82c-3.76-0.78-7.24-2.55-10.73-4.18c-11.64-5.44-23.94-9.54-35.49-15.07
	c-1.28-10.24-6.37-19.92-9.38-29.94c-3.58-11.88-4.23-24.32-3.78-36.78c0.14-3.77,0.38-7.53,0.68-11.28
	c-1.37-0.09-2.7-0.44-3.89-1.07c3.79-5.48,7.92-10.75,12.36-15.75c-1.91-7.25-6.01-13.93-11.36-19.22
	c-5.23-5.17-11.59-9.07-18.4-11.88c-2.77,4.13-5.47,8.31-8.1,12.53c-1.32-3.14-4.11-7.03-4.6-9.74c-0.29-1.67-0.59-3.39-0.27-5.05
	c0.74-3.97,4.56-6.44,7.69-8.99c6.71-5.47,11.33-13.02,16.61-19.88c5.29-6.87,11.83-13.43,20.24-15.49
	c1.74-0.42,3.52-0.65,5.32-0.74c4.88-0.27,9.92,0.38,14.76,0.3c5.1,14.09,10.66,28.27,20.37,39.62c2.82,3.3,5.97,6.33,8.54,9.83
	c3.5,4.75,5.86,10.34,6.83,16.16c0.24-6.01,2.71-11.9,6.82-16.29c2.3-2.45,5.08-4.44,7.26-7.01c1.13-1.33,2.09-2.88,2.65-4.53
	c1.17,0.49,2.35,0.93,3.55,1.31c0.39-1.29,0.75-2.59,1.08-3.9c4.06,2.6,6.83,6.9,8.45,11.46c1.69,4.75,2.25,9.83,2.8,14.85
	c3.27-15.26,5.29-31.63-0.54-46.1c-0.52-1.28-1.09-2.54-1.73-3.77c6.19,3.01,14.07,1.82,20.94,3.63c1.31,0.34,2.56,0.79,3.76,1.34
	c7.76,3.48,13.42,10.76,17.66,18.59c0.89,1.66,1.73,3.35,2.51,5.03c5.01,10.81,9.07,22.66,17.99,30.56
	c3.09,2.74,6.74,4.97,9.06,8.39C350.79,311.97,351.27,313.08,350.75,313.96z"/>
<path class="st9" d="M634.45,75.04H310.48c-4.13,0-7.48,3.35-7.48,7.48v19.71h335.37c1.07-1.53,2.26-2.96,3.55-4.29V82.52
	C641.92,78.39,638.57,75.04,634.45,75.04z M585.4,90.87c-0.66,0.67-1.59,1.09-2.61,1.09H321.97c-2.05,0-3.71-1.66-3.71-3.71
	c0-1.03,0.42-1.95,1.09-2.62c0.67-0.67,1.59-1.08,2.62-1.08h260.82c2.04,0,3.7,1.65,3.7,3.7C586.49,89.28,586.08,90.2,585.4,90.87z
	 M604.4,91.96c-2.05,0-3.7-1.66-3.7-3.71s1.65-3.7,3.7-3.7c2.05,0,3.71,1.65,3.71,3.7S606.45,91.96,604.4,91.96z M617.26,91.96
	c-2.05,0-3.7-1.66-3.7-3.71s1.65-3.7,3.7-3.7s3.7,1.65,3.7,3.7S619.31,91.96,617.26,91.96z M630.12,91.96
	c-2.05,0-3.71-1.66-3.71-3.71s1.66-3.7,3.71-3.7s3.7,1.65,3.7,3.7S632.17,91.96,630.12,91.96z"/>
<path class="st9" d="M107.67,145.89c-20.71,0-37.49,16.79-37.49,37.49c0,20.71,16.78,37.49,37.49,37.49
	c20.7,0,37.49-16.78,37.49-37.49C145.16,162.68,128.37,145.89,107.67,145.89z M102.82,188.35c0,7.81-3.83,10.21-8.89,10.21
	c-1.4,0-3.1-0.31-4.06-0.7l0.57-3.1c0.78,0.31,1.92,0.57,3.18,0.57c3.4,0,5.41-1.53,5.41-7.28v-19.36h3.79V188.35z M115.17,198.51
	c-2.83,0-5.93-0.82-7.5-1.87l0.96-3.18c1.7,1.04,4.19,1.91,6.8,1.91c3.89,0,6.15-2.04,6.15-5.01c0-2.75-1.57-4.32-5.53-5.84
	c-4.8-1.7-7.77-4.19-7.77-8.33c0-4.58,3.8-7.98,9.51-7.98c3.01,0,5.19,0.7,6.5,1.44l-1.05,3.09c-0.96-0.52-2.92-1.39-5.58-1.39
	c-4.01,0-5.54,2.39-5.54,4.4c0,2.75,1.79,4.1,5.84,5.67c4.98,1.92,7.5,4.32,7.5,8.63C125.46,194.59,122.11,198.51,115.17,198.51z"/>
<path class="st9" d="M102.82,168.69v19.66c0,7.81-3.83,10.21-8.89,10.21c-1.4,0-3.1-0.31-4.06-0.7l0.57-3.1
	c0.78,0.31,1.92,0.57,3.18,0.57c3.4,0,5.41-1.53,5.41-7.28v-19.36H102.82z"/>
<path class="st9" d="M125.46,190.05c0,4.54-3.35,8.46-10.29,8.46c-2.83,0-5.93-0.82-7.5-1.87l0.96-3.18c1.7,1.04,4.19,1.91,6.8,1.91
	c3.89,0,6.15-2.04,6.15-5.01c0-2.75-1.57-4.32-5.53-5.84c-4.8-1.7-7.77-4.19-7.77-8.33c0-4.58,3.8-7.98,9.51-7.98
	c3.01,0,5.19,0.7,6.5,1.44l-1.05,3.09c-0.96-0.52-2.92-1.39-5.58-1.39c-4.01,0-5.54,2.39-5.54,4.4c0,2.75,1.79,4.1,5.84,5.67
	C122.94,183.34,125.46,185.74,125.46,190.05z"/>
<path class="st9" d="M666.99,87.33c-9.84,0-18.72,4.07-25.07,10.61c-1.29,1.33-2.48,2.76-3.55,4.29
	c-3.98,5.67-6.31,12.58-6.31,20.03c0,9.45,3.76,18.03,9.86,24.32c6.35,6.54,15.23,10.61,25.07,10.61
	c19.29,0,34.93-15.64,34.93-34.93C701.92,102.97,686.28,87.33,666.99,87.33z M655.09,131.94h-2.82c-3.55,0-6.43-2.88-6.43-6.44
	v-7.47c0-3.56,2.88-6.44,6.43-6.44h4.55l9.77-0.01v-1.97h-9.77v-2.56c0-1.93,0.84-3.66,2.18-4.82c1.14-1.01,2.63-1.62,4.25-1.62
	h7.48c3.56,0,6.44,2.88,6.44,6.44v9.2c0,3.05-2.47,5.52-5.51,5.52h-8.81c-4.29,0-7.76,3.47-7.76,7.76V131.94z M688.15,126.49
	c0,3.56-2.88,6.44-6.44,6.44h-14.17v1.96h9.63v2.58c0,1.05-0.25,2.04-0.7,2.91c-0.22,0.44-0.48,0.84-0.79,1.21
	c-1.18,1.42-2.96,2.32-4.95,2.32h-7.48c-0.91,0-1.78-0.19-2.56-0.53c-2.28-0.99-3.87-3.26-3.87-5.91v-7.14
	c0-2.65,1.59-4.93,3.88-5.93c0.79-0.34,1.66-0.53,2.58-0.53h9.19c3.55,0,6.43-2.88,6.43-6.43v-3.95c0-0.5,0.41-0.91,0.91-0.91h1.9
	c1.65,0,3.16,0.62,4.3,1.64c1.31,1.18,2.14,2.89,2.14,4.8V126.49z"/>
<path class="st9" d="M670.73,100.61h-7.48c-1.62,0-3.11,0.61-4.25,1.62c-1.34,1.16-2.18,2.89-2.18,4.82v2.56h9.77v1.97l-9.77,0.01
	h-4.55c-3.55,0-6.43,2.88-6.43,6.44v7.47c0,3.56,2.88,6.44,6.43,6.44h2.82v-2.41c0-4.29,3.47-7.76,7.76-7.76h8.81
	c3.04,0,5.51-2.47,5.51-5.52v-9.2C677.17,103.49,674.29,100.61,670.73,100.61z M661.28,107.9c-0.11,0-0.23-0.01-0.34-0.03
	c-0.02-0.01-0.05-0.01-0.07-0.02c-0.01,0-0.02,0-0.03-0.01c-0.04-0.01-0.08-0.02-0.11-0.03c-0.05-0.01-0.1-0.03-0.14-0.05
	c-0.02-0.01-0.05-0.02-0.07-0.03c-0.04-0.01-0.07-0.03-0.1-0.05c-0.02,0-0.03-0.01-0.05-0.02c-0.01-0.01-0.03-0.02-0.04-0.03
	c-0.03-0.02-0.07-0.04-0.1-0.06c-0.11-0.08-0.22-0.17-0.31-0.28l-0.06-0.06c-0.02-0.02-0.03-0.04-0.05-0.06
	c-0.01-0.01-0.01-0.02-0.02-0.04c-0.09-0.12-0.16-0.25-0.22-0.39c-0.01-0.03-0.03-0.07-0.04-0.11c0-0.01-0.01-0.03-0.01-0.04
	c-0.02-0.05-0.03-0.1-0.04-0.15c-0.01-0.04-0.02-0.08-0.02-0.12c-0.01-0.05-0.01-0.1-0.02-0.15v-0.24c0.01-0.05,0.01-0.1,0.02-0.14
	c0-0.04,0.01-0.08,0.02-0.13c0.01-0.04,0.02-0.09,0.04-0.14c0-0.02,0.01-0.03,0.01-0.05c0.01-0.04,0.03-0.07,0.04-0.11
	c0.05-0.11,0.1-0.22,0.17-0.32c0.01-0.02,0.03-0.04,0.04-0.06c0.01-0.02,0.03-0.03,0.04-0.05c0.04-0.05,0.08-0.1,0.12-0.14
	c0.02-0.02,0.04-0.04,0.06-0.06c0.01-0.02,0.03-0.03,0.04-0.04c0.02-0.02,0.04-0.03,0.05-0.05c0.02-0.02,0.05-0.03,0.07-0.05
	c0.01-0.01,0.03-0.02,0.04-0.03c0.04-0.03,0.08-0.06,0.13-0.09c0.03-0.02,0.06-0.03,0.09-0.05c0.03-0.02,0.06-0.03,0.1-0.05
	c0.02-0.01,0.05-0.02,0.07-0.03c0.04-0.02,0.09-0.03,0.14-0.05c0.03-0.01,0.07-0.02,0.11-0.03c0.01,0,0.02,0,0.03-0.01
	c0.02,0,0.05-0.01,0.07-0.01c0.11-0.02,0.23-0.03,0.34-0.03c1.02,0,1.85,0.82,1.85,1.84C663.13,107.07,662.3,107.9,661.28,107.9z"/>
<path class="st9" d="M663.13,106.05c0,1.02-0.83,1.85-1.85,1.85c-0.11,0-0.23-0.01-0.34-0.03c-0.02-0.01-0.05-0.01-0.07-0.02
	c-0.01,0-0.02,0-0.03-0.01c-0.04-0.01-0.08-0.02-0.11-0.03c-0.05-0.01-0.1-0.03-0.14-0.05c-0.02-0.01-0.05-0.02-0.07-0.03
	c-0.04-0.01-0.07-0.03-0.1-0.05c-0.02,0-0.03-0.01-0.05-0.02c-0.01-0.01-0.03-0.02-0.04-0.03c-0.03-0.02-0.07-0.04-0.1-0.06
	c-0.11-0.08-0.22-0.17-0.31-0.28l-0.06-0.06c-0.02-0.02-0.03-0.04-0.05-0.06c-0.01-0.01-0.01-0.02-0.02-0.04
	c-0.09-0.12-0.16-0.25-0.22-0.39c-0.01-0.03-0.03-0.07-0.04-0.11c0-0.01-0.01-0.03-0.01-0.04c-0.02-0.05-0.03-0.1-0.04-0.15
	c-0.01-0.04-0.02-0.08-0.02-0.12c-0.01-0.05-0.01-0.1-0.02-0.15v-0.24c0.01-0.05,0.01-0.1,0.02-0.14c0-0.04,0.01-0.08,0.02-0.13
	c0.01-0.04,0.02-0.09,0.04-0.14c0-0.02,0.01-0.03,0.01-0.05c0.01-0.04,0.03-0.07,0.04-0.11c0.05-0.11,0.1-0.22,0.17-0.32
	c0.01-0.02,0.03-0.04,0.04-0.06c0.01-0.02,0.03-0.03,0.04-0.05c0.04-0.05,0.08-0.1,0.12-0.14c0.02-0.02,0.04-0.04,0.06-0.06
	c0.01-0.02,0.03-0.03,0.04-0.04c0.02-0.02,0.04-0.03,0.05-0.05c0.02-0.02,0.05-0.03,0.07-0.05c0.01-0.01,0.03-0.02,0.04-0.03
	c0.04-0.03,0.08-0.06,0.13-0.09c0.03-0.02,0.06-0.03,0.09-0.05c0.03-0.02,0.06-0.03,0.1-0.05c0.02-0.01,0.05-0.02,0.07-0.03
	c0.04-0.02,0.09-0.03,0.14-0.05c0.03-0.01,0.07-0.02,0.11-0.03c0.01,0,0.02,0,0.03-0.01c0.02,0,0.05-0.01,0.07-0.01
	c0.11-0.02,0.23-0.03,0.34-0.03C662.3,104.21,663.13,105.03,663.13,106.05z"/>
<path class="st9" d="M686.01,114.22c-1.14-1.02-2.65-1.64-4.3-1.64h-1.9c-0.5,0-0.91,0.41-0.91,0.91v3.95
	c0,3.55-2.88,6.43-6.43,6.43h-9.19c-0.92,0-1.79,0.19-2.58,0.53c-2.29,1-3.88,3.28-3.88,5.93v7.14c0,2.65,1.59,4.92,3.87,5.91
	c0.78,0.34,1.65,0.53,2.56,0.53h7.48c1.99,0,3.77-0.9,4.95-2.32c0.31-0.37,0.57-0.77,0.79-1.21c0.45-0.87,0.7-1.86,0.7-2.91v-2.58
	h-9.63v-1.96h14.17c3.56,0,6.44-2.88,6.44-6.44v-7.47C688.15,117.11,687.32,115.4,686.01,114.22z M671.08,138.94
	c0-1.02,0.83-1.85,1.85-1.85c0.02,0,0.05,0,0.07,0.01h0.05c0.05,0,0.09,0.01,0.14,0.01c0.03,0.01,0.05,0.01,0.08,0.02
	c0.02,0,0.03,0,0.05,0.01c0.02,0,0.03,0,0.05,0.01c0.04,0.01,0.08,0.02,0.12,0.03c0.04,0.01,0.08,0.03,0.11,0.04
	c0.04,0.02,0.07,0.03,0.1,0.04c0.03,0.01,0.05,0.03,0.07,0.04c0.01,0,0.02,0.01,0.02,0.01c0.11,0.05,0.2,0.12,0.29,0.19
	c0.02,0.01,0.03,0.03,0.05,0.04c0.01,0.01,0.02,0.01,0.03,0.02c0,0.01,0.01,0.02,0.02,0.03c0.01,0,0.01,0.01,0.02,0.01
	c0.02,0.02,0.03,0.03,0.05,0.05c0.03,0.04,0.07,0.08,0.1,0.12c0.03,0.03,0.05,0.05,0.07,0.08c0.03,0.04,0.06,0.09,0.08,0.13
	c0.01,0.01,0.02,0.03,0.03,0.04c0.01,0.03,0.03,0.06,0.05,0.09c0,0.02,0.01,0.03,0.02,0.05l0.02,0.05c0.03,0.06,0.05,0.12,0.07,0.18
	c0.01,0.03,0.01,0.05,0.02,0.07c0.01,0.03,0.02,0.07,0.02,0.1c0.01,0.03,0.02,0.06,0.02,0.09c0.02,0.1,0.02,0.19,0.02,0.29v0.13
	c0,0.04-0.01,0.08-0.01,0.12c-0.01,0.01-0.01,0.02-0.01,0.04c-0.01,0.09-0.03,0.18-0.06,0.27c-0.04,0.11-0.09,0.22-0.14,0.33
	c-0.02,0.03-0.03,0.05-0.05,0.08c-0.01,0.02-0.03,0.05-0.05,0.07c-0.02,0.03-0.03,0.05-0.05,0.07c-0.02,0.04-0.05,0.07-0.08,0.1
	c0,0-0.01,0.01-0.01,0.02c-0.03,0.03-0.06,0.06-0.09,0.08c-0.02,0.03-0.04,0.05-0.06,0.07c-0.03,0.02-0.06,0.05-0.09,0.07
	c-0.04,0.03-0.08,0.06-0.12,0.09c-0.03,0.02-0.05,0.03-0.08,0.05c-0.02,0.01-0.05,0.03-0.08,0.04c0,0-0.01,0.01-0.02,0.01
	c-0.02,0.01-0.04,0.03-0.07,0.04c-0.01,0-0.03,0.01-0.04,0.02c-0.01,0-0.03,0.01-0.04,0.01c-0.04,0.02-0.07,0.03-0.11,0.04
	c-0.03,0.01-0.05,0.02-0.07,0.03h-0.01c-0.06,0.01-0.17,0.03-0.24,0.05c0,0,0,0-0.01,0c-0.03,0-0.06,0.01-0.1,0.01
	c-0.04,0-0.08,0.01-0.12,0.01h-0.03c-0.04,0-0.07,0-0.11-0.01h-0.07c-0.03,0-0.06-0.01-0.09-0.01c-0.04-0.01-0.08-0.02-0.12-0.03
	c-0.04,0-0.09-0.01-0.12-0.03c-0.04-0.01-0.07-0.02-0.11-0.03c-0.01,0-0.02-0.01-0.03-0.01c-0.03-0.01-0.06-0.02-0.09-0.04
	c-0.01,0-0.02,0-0.02-0.01c-0.04-0.01-0.07-0.03-0.1-0.04c-0.03-0.02-0.07-0.04-0.1-0.06c-0.02-0.01-0.04-0.02-0.06-0.04
	c-0.01-0.01-0.03-0.02-0.04-0.03c-0.03-0.02-0.07-0.04-0.1-0.07c-0.02-0.02-0.05-0.04-0.07-0.06c-0.01-0.01-0.01-0.01-0.02-0.02
	c-0.02-0.01-0.03-0.03-0.05-0.05c-0.02-0.02-0.04-0.04-0.06-0.06c-0.01-0.01-0.02-0.02-0.03-0.04c-0.03-0.02-0.04-0.05-0.06-0.07
	c-0.03-0.03-0.05-0.06-0.07-0.09c-0.02-0.03-0.04-0.06-0.06-0.09c-0.01-0.02-0.03-0.05-0.04-0.07c-0.01-0.03-0.03-0.05-0.04-0.07
	c-0.01-0.02-0.02-0.04-0.02-0.05c-0.01-0.03-0.02-0.05-0.03-0.07c-0.02-0.05-0.04-0.1-0.05-0.14c-0.03-0.09-0.05-0.18-0.07-0.27
	v-0.04c-0.01-0.04-0.01-0.08-0.01-0.12c-0.01-0.02-0.01-0.04-0.01-0.05V138.94z"/>
<path class="st9" d="M674.77,138.94v0.13c0,0.04-0.01,0.08-0.01,0.12c-0.01,0.01-0.01,0.02-0.01,0.04
	c-0.01,0.09-0.03,0.18-0.06,0.27c-0.04,0.11-0.09,0.22-0.14,0.33c-0.02,0.03-0.03,0.05-0.05,0.08c-0.01,0.02-0.03,0.05-0.05,0.07
	c-0.02,0.03-0.03,0.05-0.05,0.07c-0.02,0.04-0.05,0.07-0.08,0.1c0,0-0.01,0.01-0.01,0.02c-0.03,0.03-0.06,0.06-0.09,0.08
	c-0.02,0.03-0.04,0.05-0.06,0.07c-0.03,0.02-0.06,0.05-0.09,0.07c-0.04,0.03-0.08,0.06-0.12,0.09c-0.03,0.02-0.05,0.03-0.08,0.05
	c-0.02,0.01-0.05,0.03-0.08,0.04c0,0-0.01,0.01-0.02,0.01c-0.02,0.01-0.04,0.03-0.07,0.04c-0.01,0-0.03,0.01-0.04,0.02
	c-0.01,0-0.03,0.01-0.04,0.01c-0.04,0.02-0.07,0.03-0.11,0.04c-0.03,0.01-0.05,0.02-0.07,0.03h-0.01c-0.06,0.01-0.17,0.03-0.24,0.05
	c0,0,0,0-0.01,0c-0.03,0-0.06,0.01-0.1,0.01c-0.04,0-0.08,0.01-0.12,0.01h-0.03c-0.04,0-0.07,0-0.11-0.01h-0.07
	c-0.03,0-0.06-0.01-0.09-0.01c-0.04-0.01-0.08-0.02-0.12-0.03c-0.04,0-0.09-0.01-0.12-0.03c-0.04-0.01-0.07-0.02-0.11-0.03
	c-0.01,0-0.02-0.01-0.03-0.01c-0.03-0.01-0.06-0.02-0.09-0.04c-0.01,0-0.02,0-0.02-0.01c-0.04-0.01-0.07-0.03-0.1-0.04
	c-0.03-0.02-0.07-0.04-0.1-0.06c-0.02-0.01-0.04-0.02-0.06-0.04c-0.01-0.01-0.03-0.02-0.04-0.03c-0.03-0.02-0.07-0.04-0.1-0.07
	c-0.02-0.02-0.05-0.04-0.07-0.06c-0.01-0.01-0.01-0.01-0.02-0.02c-0.02-0.01-0.03-0.03-0.05-0.05c-0.02-0.02-0.04-0.04-0.06-0.06
	c-0.01-0.01-0.02-0.02-0.03-0.04c-0.03-0.02-0.04-0.05-0.06-0.07c-0.03-0.03-0.05-0.06-0.07-0.09c-0.02-0.03-0.04-0.06-0.06-0.09
	c-0.01-0.02-0.03-0.05-0.04-0.07c-0.01-0.03-0.03-0.05-0.04-0.07c-0.01-0.02-0.02-0.04-0.02-0.05c-0.01-0.03-0.02-0.05-0.03-0.07
	c-0.02-0.05-0.04-0.1-0.05-0.14c-0.03-0.09-0.05-0.18-0.07-0.27v-0.04c-0.01-0.04-0.01-0.08-0.01-0.12
	c-0.01-0.02-0.01-0.04-0.01-0.05v-0.08c0-1.02,0.83-1.85,1.85-1.85c0.02,0,0.05,0,0.07,0.01h0.05c0.05,0,0.09,0.01,0.14,0.01
	c0.03,0.01,0.05,0.01,0.08,0.02c0.02,0,0.03,0,0.05,0.01c0.02,0,0.03,0,0.05,0.01c0.04,0.01,0.08,0.02,0.12,0.03
	c0.04,0.01,0.08,0.03,0.11,0.04c0.04,0.02,0.07,0.03,0.1,0.04c0.03,0.01,0.05,0.03,0.07,0.04c0.01,0,0.02,0.01,0.02,0.01
	c0.11,0.05,0.2,0.12,0.29,0.19c0.02,0.01,0.03,0.03,0.05,0.04c0.01,0.01,0.02,0.01,0.03,0.02c0,0.01,0.01,0.02,0.02,0.03
	c0.01,0,0.01,0.01,0.02,0.01c0.02,0.02,0.03,0.03,0.05,0.05c0.03,0.04,0.07,0.08,0.1,0.12c0.03,0.03,0.05,0.05,0.07,0.08
	c0.03,0.04,0.06,0.09,0.08,0.13c0.01,0.01,0.02,0.03,0.03,0.04c0.01,0.03,0.03,0.06,0.05,0.09c0,0.02,0.01,0.03,0.02,0.05l0.02,0.05
	c0.03,0.06,0.05,0.12,0.07,0.18c0.01,0.03,0.01,0.05,0.02,0.07c0.01,0.03,0.02,0.07,0.02,0.1c0.01,0.03,0.02,0.06,0.02,0.09
	C674.77,138.75,674.77,138.84,674.77,138.94z"/>
<path class="st9" d="M239.46,124.72c-0.67-2.06-1.84-3.85-3.66-5.14"/>
<path class="st9" d="M216.15,231.72c-7.84-4.17-12.85-13.58-11.31-22.41c1.29-7.36,6.37-13.49,11.96-18.45"/>
<path class="st9" d="M223.1,182.81c3.73,2.22,5.34,6.95,5.12,11.28c-0.03,0.52-0.07,1.03-0.14,1.55"/>
<path class="st9" d="M190.33,310.13c0.55,2.1,0.92,4.25,1.08,6.42c0.12,1.66-0.03,3.64-1.44,4.52"/>
<path class="st9" d="M160.57,279.03c-2.19-0.9-4.42-1.69-6.68-2.37"/>
<path class="st9" d="M317.67,429.85l-0.28,7.26l-41.94,9.68c3.62-3.97,6.14-8.95,9.25-13.39c1.66-2.38,3.65-4.68,5.93-6.49
	c0.01-0.01,0.02-0.02,0.03-0.02c0.28-0.22,0.55-0.44,0.84-0.64c4.21-0.81,9.4-1.07,12.45,0.15c3.64,1.46,6.67,4.64,10.6,4.84
	c0.78,0.04,1.6-0.06,2.25-0.47C317.17,430.54,317.46,430.22,317.67,429.85z"/>
<path class="st9" d="M270.89,430.25c5.17-6,11.94-10.6,19.43-13.18c4.47-1.54,10.3-1.98,13.1,1.84c0.65,0.88,1.05,2.11,0.48,3.04
	c-0.72,1.16-2.38,1.1-3.75,1.13c-3.18,0.05-6.08,1.29-8.65,3.17"/>
<path class="st10" d="M278.45,417.6c2.63-1.55,9.65-5.92,17.38-5.85c10.01,0.08,16.15,5.96,20.76,12.49
	c0.47,0.68,0.92,1.39,1.21,2.16"/>
<path class="st9" d="M153.91,378.17c-2.62-1.56-5.32-2.97-8.16-4.15"/>
<path class="st9" d="M181.86,326.95c1.79,0.13,3.64-0.19,5.29-0.89c3.7-1.58,6.48-4.79,8.5-8.27c2.02-3.48,3.4-7.29,5.16-10.91
	c1.87-3.85,4.17-7.51,6.88-10.83c2.4-2.93,5.11-5.6,8.08-7.94"/>
<path class="st9" d="M314.13,302.49c-0.82,11.44,0.23,23,3.09,34.1c0.88,3.41,1.92,6.82,2.99,10.24"/>
<path class="st9" d="M284.52,161.16c0.62,0.24,1.22,0.52,1.81,0.86c4.61,2.64,7.02,7.91,8.49,13.01"/>
<path class="st9" d="M242.12,117.29c2.04-1.52,4.57-3.11,6.94-2.22c2.19,0.81,2.93,3.11,3.03,5.57"/>
<path class="st9" d="M233.1,214.11c6.27,5.93,14.64,9.8,23.26,9.89c5.61,0.05,11.27-1.6,15.91-4.7"/>
<path class="st9" d="M280.57,293.47c-0.55-5.02-1.11-10.1-2.8-14.85c-1.62-4.56-4.39-8.86-8.45-11.46
	c2.37-9.24,3.18-18.81,3.32-28.45c0.02-1.18,0.03-2.37,0.02-3.56c0.99,1.17,1.92,2.4,2.79,3.68c1.05,1.53,2,3.12,2.85,4.77
	c0.64,1.23,1.21,2.49,1.73,3.77C285.86,261.84,283.84,278.21,280.57,293.47z"/>
<path class="st9" d="M264.69,269.75c-0.56,1.65-1.52,3.2-2.65,4.53c-2.18,2.57-4.96,4.56-7.26,7.01
	c-4.11,4.39-6.58,10.28-6.82,16.29c-0.97-5.82-3.33-11.41-6.83-16.16c-2.57-3.5-5.72-6.53-8.54-9.83
	c-9.71-11.35-15.27-25.53-20.37-39.62c1.33-0.01,2.64-0.08,3.93-0.25c1.31,0.71,2.7,1.26,4.16,1.64c1.06,0.28,2.17,0.48,3.27,0.71
	c1.7,4.49,4.42,8.4,7.69,11.93c-0.55,0.97-1.31,1.81-2.29,2.4c-0.69,0.42-1.48,0.74-1.98,1.39c-1.01,1.31-0.2,3.4,1.26,4.18
	c1.46,0.79,3.26,0.57,4.83,0.06c1.56-0.51,2.99-1.31,4.26-2.34c3.19,2.68,6.59,5.14,9.94,7.52
	C252.79,263.13,258.51,267.14,264.69,269.75z"/>
<path class="st9" d="M233.05,117.57c-0.64-0.56-1.34-1.04-2.07-1.45"/>
<path class="st9" d="M290.75,212.88c3.02,1.74,6.6,2.44,10.08,2.11"/>
<path class="st9" d="M231.27,246c-3.27-3.53-5.99-7.44-7.69-11.93c2.35,0.47,4.66,1.03,6.43,2.58
	C232.6,238.91,232.93,243.07,231.27,246z"/>
<path class="st9" d="M63.82,430.66c2.35-2.19,4.85-4.21,7.53-6.06"/>
<path class="st9" d="M219.61,447.83c-2.24,2.1-4.04,4.66-5.26,7.48c-0.85-0.29-1.72-0.48-2.62-0.46c-1.09,0.03-2.16,0.36-3.25,0.34
	c-3.68-0.07-6.04-3.9-7.28-7.36c-0.81-2.28-1.46-4.61-1.92-6.99C206.06,443.17,212.83,445.5,219.61,447.83z"/>
<path class="st9" d="M475.96,304.54l-0.29,4.87l-2.04,34.32l-1.1,18.6l-1.47,24.74l-1.19,20.13l-55.82,13.64L262,458h-7.63
	c-0.91-0.58-1.65-1.42-2.1-2.42c7.64,0.08,15.35-1.72,21.04-6.68c0.76-0.66,1.47-1.37,2.14-2.11l41.94-9.68l0.28-7.26l0.13-3.45
	l0.34-8.66l2.68-68.91l0.26-6.74l0.01-0.04l0.09-2.41c0.1-2.84,1.53-5.38,3.74-6.96c0.95-0.68,2.05-1.19,3.25-1.46l23.4-5.31
	l111.24-25.26l6.76-1.53C472.98,298.35,476.17,301.06,475.96,304.54z"/>
<path class="st9" d="M632.06,122.26c0-7.45,2.33-14.36,6.31-20.03H303v51.79c2.01,0.95,3.9,2.19,5.59,3.65v-28.41h180.03v81.56
	H310.53c-0.43,0.4-0.89,0.77-1.37,1.12c-1.84,1.33-3.95,2.23-6.16,2.72v33.91c7.76,3.48,13.42,10.76,17.66,18.59h313.79
	c4.12,0,7.47-3.35,7.47-7.48v-113.1C635.82,140.29,632.06,131.71,632.06,122.26z M313.28,116.27c-2.75,0-4.98-2.23-4.98-4.98
	s2.23-4.99,4.98-4.99s4.98,2.24,4.98,4.99S316.03,116.27,313.28,116.27z M354.66,114.91h-28.78v-6.79h28.78V114.91z M404.27,112.87
	h-42.14v-3.39h42.14V112.87z M431.23,112.87H414.7v-3.39h16.53V112.87z M466.8,112.87h-25.15v-3.39h25.15V112.87z M564.6,133.86
	h28.64v5.21H564.6V133.86z M530.49,133.86h29.28v5.21h-29.28V133.86z M497.41,133.86h28.24v5.21h-28.24V133.86z M497.41,142.92
	h81.51v5.21h-81.51V142.92z M497.41,151.98h95.83v5.21h-95.83V151.98z M497.41,161.04h47.92v5.21h-47.92V161.04z M492.55,174.87
	h68.87v35.95h-68.87V174.87z M478.58,246.99H308.3v-5.39h170.28V246.99z M600.7,238.84H308.3v-5.39h292.4V238.84z M600.7,229.31
	H308.3v-8.28h292.4V229.31z M634.48,210.82h-68.87v-35.95h68.87V210.82z"/>
<path class="st9" d="M395.84,166.11h-3.22c0.67-0.42,1.22-1,1.61-1.7C394.62,165.11,395.17,165.69,395.84,166.11z"/>
<path class="st9" d="M608.11,88.25c0,2.05-1.66,3.71-3.71,3.71c-2.05,0-3.7-1.66-3.7-3.71s1.65-3.7,3.7-3.7
	C606.45,84.55,608.11,86.2,608.11,88.25z"/>
<path class="st9" d="M620.96,88.25c0,2.05-1.65,3.71-3.7,3.71s-3.7-1.66-3.7-3.71s1.65-3.7,3.7-3.7S620.96,86.2,620.96,88.25z"/>
<path class="st9" d="M633.82,88.25c0,2.05-1.65,3.71-3.7,3.71s-3.71-1.66-3.71-3.71s1.66-3.7,3.71-3.7S633.82,86.2,633.82,88.25z"/>
<path class="st9" d="M308.59,129.26v28.41c2.38,2.04,4.38,4.51,5.85,7.29c3.1,5.91,3.7,13.08,1.63,19.42
	c-0.5,1.53-1.15,3.03-1.24,4.63c-0.11,1.95,0.62,3.83,1.01,5.74c1.2,5.78-0.95,12.11-5.31,16.07h178.09v-81.56H308.59z
	 M413.86,181.67l-7.1-3.49v3.57c0,1.62-1.32,2.94-2.94,2.94h-19.03c-1.63,0-2.95-1.32-2.95-2.94v-12.69c0-1.63,1.32-2.95,2.95-2.95
	h2.74c-1.33-0.84-2.21-2.32-2.21-4.01c0-2.63,2.13-4.76,4.75-4.76c1.79,0,3.35,0.98,4.16,2.44c0.81-1.46,2.37-2.44,4.16-2.44
	c2.62,0,4.75,2.13,4.75,4.76c0,1.69-0.88,3.17-2.21,4.01h2.89c1.62,0,2.94,1.32,2.94,2.95v4.23l7.1-3.85V181.67z"/>
<path class="st9" d="M406.76,173.29v-4.23c0-1.63-1.32-2.95-2.94-2.95h-2.89c1.33-0.84,2.21-2.32,2.21-4.01
	c0-2.63-2.13-4.76-4.75-4.76c-1.79,0-3.35,0.98-4.16,2.44c-0.81-1.46-2.37-2.44-4.16-2.44c-2.62,0-4.75,2.13-4.75,4.76
	c0,1.69,0.88,3.17,2.21,4.01h-2.74c-1.63,0-2.95,1.32-2.95,2.95v12.69c0,1.62,1.32,2.94,2.95,2.94h19.03c1.62,0,2.94-1.32,2.94-2.94
	v-3.57l7.1,3.49v-12.23L406.76,173.29z M392.62,166.11c0.67-0.42,1.22-1,1.61-1.7c0.39,0.7,0.94,1.28,1.61,1.7H392.62z"/>
<path class="st9" d="M395.84,166.11h-3.22c0.67-0.42,1.22-1,1.61-1.7C394.62,165.11,395.17,165.69,395.84,166.11z"/>
<path class="st9" d="M492.55,174.87v35.95h68.87v-35.95H492.55z M516.19,201.91l7.81-15.75l4.31,7.25l2.72-3.73l6.23,12.23H516.19z
	 M538.79,187.07c-1.22,0-2.21-0.99-2.21-2.21s0.99-2.21,2.21-2.21c1.21,0,2.2,0.99,2.2,2.21S540,187.07,538.79,187.07z"/>
<polygon class="st9" points="537.26,201.91 516.19,201.91 524,186.16 528.31,193.41 531.03,189.68 "/>
<path class="st9" d="M540.99,184.86c0,1.22-0.99,2.21-2.2,2.21c-1.22,0-2.21-0.99-2.21-2.21s0.99-2.21,2.21-2.21
	C540,182.65,540.99,183.64,540.99,184.86z"/>
<path class="st9" d="M565.61,174.87v35.95h68.87v-35.95H565.61z M589.25,201.91l7.82-15.75l4.3,7.25l2.72-3.73l6.23,12.23H589.25z
	 M611.85,187.07c-1.22,0-2.21-0.99-2.21-2.21s0.99-2.21,2.21-2.21c1.22,0,2.21,0.99,2.21,2.21S613.07,187.07,611.85,187.07z"/>
<polygon class="st9" points="610.32,201.91 589.25,201.91 597.07,186.16 601.37,193.41 604.09,189.68 "/>
<path class="st9" d="M614.06,184.86c0,1.22-0.99,2.21-2.21,2.21c-1.22,0-2.21-0.99-2.21-2.21s0.99-2.21,2.21-2.21
	C613.07,182.65,614.06,183.64,614.06,184.86z"/>
<rect x="325.88" y="108.12" class="st9" width="28.78" height="6.79"/>
<rect x="362.13" y="109.48" class="st9" width="42.14" height="3.39"/>
<rect x="414.7" y="109.48" class="st9" width="16.53" height="3.39"/>
<rect x="441.65" y="109.48" class="st9" width="25.15" height="3.39"/>
<path class="st9" d="M318.26,111.29c0,2.75-2.23,4.98-4.98,4.98s-4.98-2.23-4.98-4.98s2.23-4.99,4.98-4.99
	S318.26,108.54,318.26,111.29z"/>
<path class="st9" d="M586.49,88.25c0,1.03-0.41,1.95-1.09,2.62c-0.66,0.67-1.59,1.09-2.61,1.09H321.97c-2.05,0-3.71-1.66-3.71-3.71
	c0-1.03,0.42-1.95,1.09-2.62c0.67-0.67,1.59-1.08,2.62-1.08h260.82C584.83,84.55,586.49,86.2,586.49,88.25z"/>
<rect x="497.41" y="133.86" class="st9" width="28.24" height="5.21"/>
<rect x="530.49" y="133.86" class="st9" width="29.28" height="5.21"/>
<rect x="564.6" y="133.86" class="st9" width="28.64" height="5.21"/>
<rect x="497.41" y="142.92" class="st9" width="81.51" height="5.21"/>
<rect x="497.41" y="151.98" class="st9" width="95.83" height="5.21"/>
<rect x="497.41" y="161.04" class="st9" width="47.92" height="5.21"/>
<rect x="308.3" y="221.03" class="st9" width="292.4" height="8.28"/>
<rect x="308.3" y="233.45" class="st9" width="292.4" height="5.39"/>
<rect x="308.3" y="241.6" class="st9" width="170.28" height="5.39"/>
<line class="st9" x1="781.71" y1="458" x2="530.03" y2="458"/>
<line class="st9" x1="44.45" y1="458" x2="18.29" y2="458"/>
<path class="st9" d="M525.65,295.25c-20.79,0-39.13,5.62-49.98,14.16l-2.04,34.32c10.48,9.51,29.86,15.89,52.02,15.89
	c33.32,0,60.33-14.41,60.33-32.19C585.98,309.66,558.97,295.25,525.65,295.25z M509.92,332.71c-1.38,1.29-2.92,2.21-4.61,2.76
	s-3.84,0.83-6.46,0.83h-5.94l-1.64,8.45h-6.93l6.19-31.8h13.31c4.01,0,6.94,1.05,8.78,3.15c1.83,2.11,2.39,5.04,1.65,8.81
	c-0.3,1.56-0.81,2.98-1.53,4.26C512.02,330.46,511.08,331.64,509.92,332.71z M530.8,336.3l2.73-14.07c0.32-1.6,0.2-2.7-0.34-3.28
	c-0.54-0.58-1.69-0.87-3.45-0.87h-5.49l-3.54,18.22h-6.87l6.17-31.81h6.88l-1.64,8.46h6.12c3.85,0,6.51,0.67,7.97,2.01
	c1.46,1.35,1.9,3.53,1.32,6.54l-2.88,14.8H530.8z M568.35,324.91c-0.31,1.56-0.82,2.98-1.53,4.26c-0.72,1.29-1.67,2.47-2.82,3.54
	c-1.39,1.29-2.92,2.21-4.62,2.76c-1.69,0.55-3.84,0.83-6.46,0.83h-5.93l-1.65,8.45h-6.93l6.19-31.8h13.32
	c4.01,0,6.93,1.05,8.77,3.15C568.52,318.21,569.08,321.14,568.35,324.91z"/>
<path class="st9" d="M512.62,316.1c-1.84-2.1-4.77-3.15-8.78-3.15h-13.31l-6.19,31.8h6.93l1.64-8.45h5.94
	c2.62,0,4.77-0.28,6.46-0.83s3.23-1.47,4.61-2.76c1.16-1.07,2.1-2.25,2.82-3.54c0.72-1.28,1.23-2.7,1.53-4.26
	C515.01,321.14,514.45,318.21,512.62,316.1z M507.11,324.43c-0.48,2.46-1.4,4.22-2.77,5.27c-1.36,1.05-3.45,1.58-6.24,1.58h-4.21
	l2.59-13.31h4.74c2.63,0,4.39,0.49,5.27,1.46C507.36,320.4,507.57,322.07,507.11,324.43z"/>
<path class="st9" d="M507.11,324.43c-0.48,2.46-1.4,4.22-2.77,5.27c-1.36,1.05-3.45,1.58-6.24,1.58h-4.21l2.59-13.31h4.74
	c2.63,0,4.39,0.49,5.27,1.46C507.36,320.4,507.57,322.07,507.11,324.43z"/>
<path class="st9" d="M540.66,321.5l-2.88,14.8h-6.98l2.73-14.07c0.32-1.6,0.2-2.7-0.34-3.28c-0.54-0.58-1.69-0.87-3.45-0.87h-5.49
	l-3.54,18.22h-6.87l6.17-31.81h6.88l-1.64,8.46h6.12c3.85,0,6.51,0.67,7.97,2.01C540.8,316.31,541.24,318.49,540.66,321.5z"/>
<path class="st9" d="M566.69,316.1c-1.84-2.1-4.76-3.15-8.77-3.15H544.6l-6.19,31.8h6.93l1.65-8.45h5.93c2.62,0,4.77-0.28,6.46-0.83
	c1.7-0.55,3.23-1.47,4.62-2.76c1.15-1.07,2.1-2.25,2.82-3.54c0.71-1.28,1.22-2.7,1.53-4.26
	C569.08,321.14,568.52,318.21,566.69,316.1z M561.18,324.43c-0.47,2.46-1.4,4.22-2.76,5.27c-1.37,1.05-3.45,1.58-6.24,1.58h-4.22
	l2.59-13.31h4.74c2.64,0,4.39,0.49,5.27,1.46C561.44,320.4,561.65,322.07,561.18,324.43z"/>
<path class="st9" d="M561.18,324.43c-0.47,2.46-1.4,4.22-2.76,5.27c-1.37,1.05-3.45,1.58-6.24,1.58h-4.22l2.59-13.31h4.74
	c2.64,0,4.39,0.49,5.27,1.46C561.44,320.4,561.65,322.07,561.18,324.43z"/>
<path class="st9" d="M279.1,200.57c-2.74,2.7-6.44,4.42-10.27,4.78s-7.78-0.65-10.98-2.8"/>
<path class="st9" d="M270.02,175.3c2.01,3.68,3.36,7.72,3.95,11.88c0.36,2.53,0.29,5.48-1.64,7.16c-2.14,1.86-6.04,0.79-6.94-1.89"
	/>
<path class="st9" d="M283.01,170.11c-2.1-2.59-6.7-2.46-8.64,0.25"/>
<path class="st9" d="M248.16,171.91c1.76-2.83,7-3.36,9.27-0.91"/>
<circle class="st11" cx="242.58" cy="188.72" r="6.12"/>
</svg>
